<mxfile host="Electron" agent="Mozilla/5.0 (X11; Linux x86_64) AppleWebKit/537.36 (KHTML, like Gecko) draw.io/24.7.17 Chrome/128.0.6613.36 Electron/32.0.1 Safari/537.36" version="24.7.17">
  <diagram name="Page-1" id="G8rqFxLkYZkYRmx4nloQ">
    <mxGraphModel dx="2920" dy="1343" grid="1" gridSize="10" guides="1" tooltips="1" connect="1" arrows="1" fold="1" page="1" pageScale="1" pageWidth="850" pageHeight="1100" math="0" shadow="0">
      <root>
        <mxCell id="0" />
        <mxCell id="1" parent="0" />
        <mxCell id="oPA0So_-t_OELJ_-Shg7-1" value="" style="rounded=0;whiteSpace=wrap;html=1;fillColor=default;strokeColor=none;" parent="1" vertex="1">
          <mxGeometry x="-120" y="430" width="970" height="60" as="geometry" />
        </mxCell>
        <mxCell id="Q7hV6-PsKFBh_cIL3uZ7-1" value="" style="shape=image;verticalLabelPosition=bottom;labelBackgroundColor=default;verticalAlign=top;aspect=fixed;imageAspect=0;image=data:image/png,iVBORw0KGgoAAAANSUhEUgAAAfMAAAFNCAIAAACbrREZAAAACXBIWXMAADMpAAAzNgH8fDcpAAAgAElEQVR4nO2dzc8dt3WHeSW9+vCtZFlGN+kuf0lgoOjOBZpNvUjgeO0iqxYtiqKrAEV3Abwr4LjIIinQFOi6gJG/pSt1YflDuLakV9LtgjFDHZLnkhxyPjjPg3dxZzj8uGfIH897hnd4OJ/PBgAARuHx48c3lm4DAAA0BmUHABgNlB0AYDRQdgCA0UDZAQBGA2UHABgNlB0AYDRQdgCA0UDZAQBGA2UHABgNlB0AYDRQdgCA0UDZAQBGA2UHABgNlB0AYDRQdgCA0UDZAQBGA2UHABgNlB0AYDRQdgCA0UDZAQBGA2UHABgNlB0AYDRQdgCA0UDZAQBGA2UHABgNlB0AYDRQdgCA0UDZAQBGA2UHABgNlB0AYDRQdgCA0UDZAQBGA2UHABgNlB0AYDRQdgCA0UDZAQBGA2UHABgNlB0AYDRQdgCA0UDZAQBGA2UHABiNWw3Leu+jzxqWBgAwJJ9/+mHvKtoou9X0//zkp01KW4SDOS/dhHWBQSzYQYBBLFPsYAWzq74fzuep9+m9jz7btKYbOmsABnFgCgEGsUy3w19+/JtO4v748eOpcfYBZB0gBSomwCCWJnb4708+6BfBnqTsY8g6nVWAQSAKHaM5/cSdtTEAcRAyiNK2Y3QS93plx2EfEgxiwQ4CDLIt8NnhjzB6AXS2MkYqlR2HHQaGjiHAIF3pEZDBZ4c/wOgF0NnQGNmvsm/oJsGc0DEEGMSyLTvsVNm3dZNmAIMAjMROlR0gCjOcAINYNmeHPSr75m5SbzAIRKFjbJc9KjtAFIQMomyxY7R8i+8m2OJN6goGsWAHAQaZmb/4m0+e3zj+/pc/M8b86Oe/siejhznsTtnBh9ELoDPzGHny3Vk5zGdf0RiEDKLQMQQYZOvsS9nBh9ELoDNljFxfX7969Wr6Bhh17EjZETKIQscQYBDLpu2wlzj7pm9SDzAIRNlcx3j7eOfr03Nxxn0WSf4FYZKf0fHN6Vlpk6yffnV19aMP/tUY8/vf/J0x5vr6+urqqrSoavai7ABRNidkoOCk2ar228c7KRE3sSnBz2s7xoPj3QfHu6XifjgcwpPn16+LCpnILqIxjF4BBoEom+4YTsSdXkeF+2KSj9X0B8e705t3MeD+/MZxei2OXSg7QJRNCxnkoIdcouEXM6FjnM/nV69evXz58uXLlzJp3s42vrIzegUYxIIdBAMYRImuXLxsMMZXdvAZYPQCVHPx4ap5c4zYOEx+nP1wONy8efPWrVu3bslHmHfv3itr6zQGf4KKkEEUOoZgtwYJn6OKqHq+rNuVMJnn7YKZfgyu7OCz29ELeyZcHpMKr1sqljmukJGVHSGDKHQMwTAGSS1kdKkmCMLoKl9E6Ib769lnZtg4+zCdtRUYBKKM3TGU9ezimsEYVtkBoowtZHtG/DrJxCRbkfjBOsaY0ZjBbtJ0MAhEGaxjhOLupDzlmH99ej6kzz6msgNEGUzIwGQvV9d/j2o7xhjPTi0DRmMYvQIMYsEOAgwyMAMqO/gwegF0hhwjo0VjhrxJMB06hgCDzMAi6x0t+Owjw+gF0FnnGPnhD9794Q/enVLCUD77Om8SLA4dQ4BBLCu0w6N7B2PMzRtvHFYwjrKv8CYtCwaBKHSMdfL7X/7Mff63v30/lZQJ0RgYHIQMoozdMQZR9rFvUgUYBKLQMXbCIMoOEAUhgyjDd4xknP1HP/+V8eI74nBVDH+TSsEgFuwgwCBrRtFYm5RKjSKV/cl35/xDWCGMXgCdNY+RVhq7+WjMmm8SLAgdQ4BBdkUyGvNf//KhcniR6+vrGzdu3Lhx43CoXI8JFTB6AXRmGyOlGuhr7LPn18aY12fz1t0rUy6/Zuvr2SfepEfHW09OL1s1BtYDM5wg0yDhy29Fkr6FRWYWZW8j/6W7F+vKb23qPb325Y5u49PwXY+lO1y34saNG8aY65f16pRU9vPZGGPcZPP02+c3bxzeunv7Yonn89kYc3V19ecf/MIY8z+/+UdjzMvr61tXV9WtjMLoFWAQiLJsx8jX6KJpowL3tt7eOA30d8u7vr6+ytbAv/6nX9sP1lv/9tmLHO31aR9nPxwO4X8fr1+/bl7RdHDYh4QZrjnVe1Mor0oXZTaU9VRrSzuG8+VLiWrgeV4NTCr74WDeaNvBnJ5dV1djJ7Ei3j3edH+R5sVu0qPjLfcnzkcPxfkU9jK/2FRFYVJmFdNBziBKXcco2mfuYgmp0uz56VsaTW+tJZTyhnGYCg2cQq7u3L935/69CzfgfD6/fv3afoFbt94o+VzYvayaf3F6Zb6XePtZwWqodcOtsPouuTusi62LwlMVhUmlFcFEmOGm02oDuRx5nR6HadXab07Pqp10RysN/Pd//sAY8/rVH9z80lCMWfOqRyfloaanRq9TWKHdQnnr8MsUFfnFptrQFeTMgh0ETQxSoZt+lpRqu/Ntw+tKax8c74o/pZzpKj+F453bxzu3790pFnRHUun+6u8/M95qG3EY5XA43LwZiZwYY+7evVfaMt9Pv+iwm0tK+uT00neoS1FyuZKXAjmD3kwXX+U5as4j1iJSpZWGVipCMVM00NfY//2/L40xj95+6/bVTZdkpvwGtRq7EibzvF0wo/DF6ZUfYfeVPSVk88irEj0n9rIszHCCKQaxIY6Jgqs7+y4OMz2W0qS15vuATHVs3a6EyTzfe7ul9YqRU/PMOLt507PWH6JWYz30qAu/iPOOnEFXqkMx0eXqgqLV6/lVCyrGyLKhGGPMn/3p28aYZy86rGcv/Q1q6Ib769lLEaEY57xPcdit8jb/ddKUIA+0ghlO0NAgrUIlvnyLQPzbxzutxF0UUm2HCs89dMP99ewX8TX21s2bxpg/uXczTMpkvU9QnZpflHUTCGvKYQ8feNYh1k1G/1eYwX9HziBKk44xJU6ia3SP3yWtaoXMGlhpNEaJsyv4Cu7ccyG+02MmrnB3mEqCeWCGWw8peRXKK2S9rdvuEB0jKtnzvzlA4cun375z/y1jzI//4TN7xnrr7nw+69UgoeYXR29qpWMYJyldmKiUoF/cVeKRM4gy8cFp/mFOCdEk5YepU+qKHf7BFLp8i1T9cCusNxqzRUKHnfh7b5jhIMrOO8Z6fXYfe5MUF3iigLYqWQnUtGXnvdaBHQTzGESJaM/2s6Perw9bBBdy+Y9f/NQY8+2zF+J8PttQdks/oWxY8gxOOnIGyzKbqlZXtPUx8vT0zBhz93a9Prf8Daqgbr1jyNZvEnSCjiHAIGuj6OdIvsY+evBWmGRKfoNKnH1jMHoBdBgjJvTZH9075B/OADcJotAxBBjEsnU7tNLYZDRGuP35/wU0ZOs3qTkYBKLQMQZA0dgK+SUaA9sDIYModAzHepWdmyTAIBCFjgEh61V2gCgIGUShY/isVNm5SQIMYsEOAgwCUVaq7ODD6AXQYYwI1qjs3CSIQscQYBBIsUZlBx9GL4AOYyRkAWUPt9Tw4SZBlG11jIfH2w+PkY3nxXl76P5Kq7DvNJ/a1tb0aJJS5rY6xmysy2fnJgkwyEb56vTi4jVWyr86vbB/7kwOD4+3vz49ty/MWqG4V7DOWWq7rEvZAaJsdIaLKrUv4v4EkDMZhMWOJO4VbLRjzEDft/j68RZ9xzt7JftU+NBrWxHKqH/GF0p3zcPj7a9OL1ySuDJfhcNmXLwmp/CK19vavejcHqT+oQlmiMzylQ3wokliPzy/MeKCzJLdhkd2Jzzl0H62H/xt83K2TPJzuXJSJYgkV/XMdPTZrVh/cXplNT0aVfevRNYhyvQZLqqVwncOVd6KrDsvDusqvZilIle+youtpa2MOiUVh/mlhVlcUZltExvp6SX7SU5G89XTSq39y8xi3pwq3OdQ5ZWkmekbjXF++sUtqpF1AQ67pYcdhC47MRWqKs6nLptSV8Xj04kG8aVW6Km+T6lemp6lIliklOzOpNRTnNHlNV98/ZnAfVZc+GU3UJXKfsijoqaUuCu+/G5B1nuQUs9oNKYJYfxHpPpOesXymFKa74WUipm0rShamh0jKfVUdqmuE1wlV11SSFvh7eWzZ+r1u8ebF9152C0NZzjdH69bd9iK/OUxq5ry/TBOw0e4SlEXayny1uuwZT443vX/+lVXTS9lz9TrL06vLu5evTdWNXrHQ/ede4h79Llrw4oWXBjjB9NbNUPx911SdIwofnpDbLEuUu+H7JcNvwiksp/zqKhJ8eJtkB1xB59+EfaUwrYNxfhlpn61VFSUb5A1LHNUlq/0q8i8aYeJQfYm+G673hidtsLb9wmq/nNT490knqBacNj7kRJup7BzRmOiS3FMupF+x4guHOzUTh1/tWLbLMplIvoResozOO9KG1YSnOmo7G6xo1v+eDELbjtYZpvh/Di76eO2+xWlqi6t3a4BX1bW/Th7ZjNElmiSXrJbi5KS9RlQ2rCG5ln6KmlUzd1J4afjtuOwW/rZQVnYrp/UDysqLSonapBSQRfXFx1mljmxZGV1TSjuUS5663Xu/MVyKsrsDW8XAIBtgOuTz2LRD26SAINYNmQHJS4/MaqjlKz4vErkui5i07zA1aLExFfig5dCXHsVbEjOwDFPUD6/bzRX21XJd9cx0k++l5oYlonGIGQQhY4hwCAW7FDKAsrOTRJgEABoC09QYS0wwwkwiAU7VDC3snOTBBgEotAxYAr47LAKEDKIQseoY1Zl5yYJMIgFOwgwCEwEnx0AVgozXDXzKTs3SYBBLNhBgEFgOvjsy8DoBdBhjExhJmXnJkEUOoYAg1iww0TmUHZukgCDAEBXeG8MLAYznKDOIKnXo4vz4vVeRe+EcXnneZNMjh0eHO+u511dq2qMpbvP3mn0Pjre2ug2HcgZRKnuGDlq61S+YtvSt493mm92Cr3hCSosAzNcW6KaG25U5J8vLXYecadjNKGj2/vu8eaT00vrWYd7WIsdlFJJ0fPu5KPjrW3txESvtQxsh9Qm2uHGp+6ah8fbdvc7eygEtPmr1f1r8re4K63dfSP7YfoX9F+hLkIfFUnK+fAytwfeN6dnSl0XGzMnfX32UNafnF6GKp9KSp13ar4tWYc9oOy95yQ+VHkR8SgNgFSIryu/NFfmlWGUP+cLpqZ8p7BOZKckKVl0LmasLrk5UtkPeeRX4IuvUOSoP57aHDXMsjkGdlSL2JUdxO5ITvfFBOAU0H4Qh5mknpH6ehrdXboT0fhP9Rd0/q+yK2mop6lcSpbqZkwsua3w9vXZFZ86MxqTWdr62ZWcQWq7u2g0pgm+RIba7T87Nd+rfMPa9fZkkj9G6jaYvqjFU+ptcn1DernA4iZZ4U553DYcL4ItehbYKHuY4b46vYgquD3vkuz5mQ0ixH09++EpdlDcXpsUvSCVq1+ERGnM/EjdPJ+z+tl7H32mpIY3yWp3jgtvJd7G1jf3gDTFHuQMQkLP3X9q+vB4u/lOqk6shQvfSsEXWfUonluGSVHXOJVLKW0iSmNyyNTeTBZb9eg76TmhGLPlNexg2dUMl1okY+nhsCtPXKco8gxqXmoH3Ysv9dZLn6DmozSmN+2VXblJ4aKXVFJOlq2wKzkDS8oZd+KeCsT3IFT81M9WU3lLc/VArGxRkqKrG0Wuiiw5qXrJczKfz+6i56FGp5JysszWfpgIM5xb7GhlvZ9EhiWL5TFFtdul6MvKultnEsplRVJ+lvxmZF4wG42V0R+9oX+dv1RmSpZVgZxZdmgHZWG7edMgQi71Qx3l4imiXJq36Btlyl9q2aJeQsV6GL09qZh+ZvbZ4O0CALAYO5zy56Glz85NEmAQC3YQVBhEeYw5MUJSV3Lz9ihPGlfiBW8L4tS9QM6gIXMG5fvlEvhjZP3yvf4W+jSLxiBkEIWOIcAgFuzQlTbKzk0SYBAAWBCeoEJHmOEEGMSCHXrTQNm5SQIMAlHoGDAb+OzQC4QMotAxBD0MMlXZuUkCDGLBDgIMAnOCzw4A88EMJ+hkkEnKzk0SYBALdhBgEIjSr2PgszeD0QugwxiZjXpl5yZBFDqGAINYsIOgq0E6vl1gVTsiucZ0ahW9FsYj9eZecT61s3YO7nUx2/rt/vohGgMtYYYTbNogORrtVN7toB19WVjUDnZvOfdO86nNXR/Knkq9O0ZHZV+Pw96bTY9e6McYHSOq1L6I+xNAvsPuS97A4r4U80VjUpudKuftJtfRVL3ezCzb3YFvnYwhZKsllFH/jK+/fpzE7ojknxeHdc24eI1feKpjVERgrJvvdizyD00wQ+SULwo0sSnHvziaFD3vb5snyplhpMwUjXEaKna5S53PSS2qSLmy7hs5kDMLdhA0N0hUiIXvHN3y1D8vDusqvZilIle+youN6ERIpyLCE8p6tIRUUuq82JxvZubeB9UEYpo6n5NaVJFyJcDmSD23TG1NZz+kLptSl9teNT/CPpHo7nT2Q52eKgVG/fHU1n05M8o8PpBU9kMeE2vNFN/pypsqodXW2DiqFuwg6GeQlKMdjcY0IYz/iFTfSU/pe0Oau8D5e6IqgZqc0ozaMdoK7xx7Kl0MicxQkbhMRPDrQM5gZvyguXnTd/Yltd8GTHrb7AcX8zFbGyNWuFMetw3HR2P6K3z2O4ey6zKaepravKKwxlWtuN8u2xq9MzCDQaK+s0sSDzBb1SjiOSZ4UioossMaxNE9klUusB/8gL6exWfOkSKjMec8JtZq9feiCk93qy/OKNVVIGewFKlFMpYeDrvyxHVK7GUNaq7jO+k5oRiRpYi2wjvfE1SxHsYEQfCoyIa5KipKgcM+HWY4QW+DpITbKWzvMHfYGLEUx56/aIdw1eBKfoYaLnpJJeVkccw8UmZSducgh2sN7Un/1/85uSoqSlHhtiNnEGWpjuGvUTE94+xhyWJ5TFHtfuR6JbLur540sTUzYVJOltna7+gYZ0+tbiy6psKtLlo9ids+BWa4RVAWtusn9cOKSlNJ+R2jVNBTyw1zDjMbkL9UJj/L/COF98YUg5xZsIMAg8B6mGNtTFsyl9kAQA5KXL4uquNmOCUKoT+BrMil0LzAUhaZ8ter7CmZXla+8css2EGwXYP0C8rX6eacP0SagaU6BtGYArY7egHmgTGyElB2KIbRK8AgFuwgWNAgKHsu9FoA2AooO5TBDCfAIBbsIFjWICh7FvRaiELHgHWCskMBCBlEoWMIFjcIyn6ZxW/SSsAOAgwCqwVlB4BJMMMJ1mAQlP0Ca7hJawA7CDAIRFlJx0DZNVZykwBWC2NknaDscBlGrwCDWLCDYD0G6fjemK3vRbeemwQwhdRr08V58WqwovfJiN1BYXHw2Qt453j1zvFq6VbMDTOcYHMGydFop/L2z2TszeS/09HuCGrWtwFe9d51FayqY3RUdhx2GI/tdoyoUvsi7k8A+Q57uDvo2sR9n8wXjQm3wbt4/snpZSpVr9TfKk8pIadJX56u7Qfnrb9zvHInh2e7QrZaUvtTh56yHyf5+vTcJYkr617Dm7Ndqq03muR3jOmvTXclpLYeDecMcY3deE+k+tuTXmxkTuH2g38oMj49fec+3z/ee3r67v7xnjg/DzNFY5zUCrVNnc9JvViXXoLepC9P11a+naA7NUfWd0sTgyjb2vkhERPsHO2fF4d1lV7MUpErU+WdMgpxjGb3r0mFfVxEKNyGNKdVFws3ienHfbbabXXcsZSsmznj7Bd3Ii3avzSzrrCEqJ8uChcivsPYOsxG6rllas9S+yF12ZS63C7V+RH2KYQ7RIfXiJM5WaIZp7dH2WH1m9Mza5CouC8i6yZU9kMeE2vN1Ou6SL2SKzMa47MfD12Awy5oa5CUekajMU0I4z8i1XfSc/S9IUI3c3S5YjPr6vboh37HEDpeJOtthXeO3fKUKEpmgGVKvakqbDjepfoePU46dMUPmps3fWdfUvvtY6e3zX5wMR9xwfQZzgp3Sr6ViHmnZ7PVha/5WfEcyi4ehIap7nNbobf15rjwVuKfnF5+ebre1QPSFDjsgk4GifrOLkl5gDmlRhHPMeqTUsFFO2S62xWPNHOy1FFduJiEVoWMxpzzmFir7k2LyxriO+lhKCbaa/e5hh1mILVIxtLDYVeeuE6JvUxXt3DVebhI5mKWhlQXLoLsRbQV3vmeoIaSqkS9lVwT643+iyAK9xc4mv2F2nHYBT0MkhJup7BzhrmjS3FM0MioHVIrFC/iL0k0wTPJ0izTqSjcGsSp+YIrYUJmUnYXxY7KqwuGmJgrHc01vV6RFK6HCWWdpTI7ZM55zl+jYnrG2cOSxfKYotptUKJIbV30PD9XRRaTsYpmSuHGWw+zKlk3XePsqdWNRdeUqnlRCW8m/XEAK0768P47DvtsKAvb9ZP6YUWlOeXoHaMuSF2amspStJSltD2p0pxBUmq+rMrz3hhjkLPvwQ4CDAIbZY61MW3JXGaTD6MXBkCJy0+M6igl6084K3L1o2171i8a61X2lExv+kVja2b9nXVmtmWQrkH5ClOs7XW+DduziY6x92jMJm4SwIIwRrbI3pUdLIxeAQaxYAfBVgyya2Xfyk0CAChi18oOFmY4AQaxYAfBhgyyX2Xf0E2COaFjwADsV9nBgpBBFDqGYFsG2amyb+sm9QM7CDAIjMEelZ3RC6DDGBFsziB7VHawbK6z9gaDQJQtdozdKfsWbxLAnDBGBmB3yg4WRq8Ag1iwg2CjBlnve2NKSb3D3T9/MGfxdvWit/K6vGt7l2+PHf4eHm9/dXrRtsyuTGlww9Gberm5OC9es1X01pdlN0q9SI9t7fptlTcq4/jsOW8Kc5tp2D9Tso2GVc8xNt+wQvbwePvh8fbSbRmNHLV1Km//TMkOSnbP0tJcmSzon3bd/a6ajTrsZiRlt0Tf8evv1hTukZSDL+VjiDs4eozeqOb6cuxPAPmud7hR6pyb6sGG6BWNSW06mtoSz558cnopdklNbZpa1AydzFBGRbjDluz+UfAPTTBDZJYfzjF6kvh29pqvTi+ct+6CGL7/LsIa0SR7Ujl0xfrVhYWnKG1PeIGr17/GP+OX48dJvj49FxGPiQGQHP219V68bHoDohOMPXQRj8zoh+9li+ujSaJYtzWdvwdpuL9dZsn6oSvWry4s3MdN+feP956evvP3w/N3shZ7J4kkmzdVRT96+ezK3nhO4kOVt+Lu71AavayoUkvKL3MBliJKnX2hs/5Wq0URHj+aJLK4ojLb5sTO17ivTi9CyUsl5Qe1rbi7EjKzlLYnvCDVSD9jNLIhIh6lAZAK8XXll+bKucwP/pj0k4BSnHqGWmwF1CVdxF3mF5UqOZqUH4XPbJtQjFDWn56+C1VeSZoZqeyHPEqrEbrsJDi1D6r9kLqstC57k3w9dRtYz0A0/mM/iMOi0vQsFd9OaL2SlBLT1KF+8fT2KHn1qt1lqZ1F7QdxmEnqGanYS3qecIr+FUQb8uPdQpFTVATQlZKj04BSnV57ftt819t9Vlz4Ule9rfD2jbOnHO1oNKYJYfzHR3i1M+h78yUrqWhMTkX5AWXFuc4UU/+wYslKfhYlUKOfNIloTBP80kLt9p+dmu9VvmHtIWE0RlC3K3QqrNF2HYtSWsWe1zltC0eKItN1Sb3pqOy6P26DLTkxlolE5axuecziiH87WhWrONEX/esib72oSf5fZvnRhY+pKcd+mNNxDqlbHlNRi0l802pv3Xguc9tlLUpRF2sp8tbrsO75/eM9/89PWglS2c95FNURyreNnucH0EuJPndtKIULTgbVc5LisFd46NHUtuvfXWg+3/0Xj3MF4uTBnHsLa/S5a8OK8ouKflN76DpGhaPtB6xbyWiFhx5Nrf6/Qf/X1rrhNpLu/5nJHnpb4e2+6jG1SMbSY7tqf8IQN2mKIq/BtVcWxrSlyItv7rYXlRBeHH0YIBbJHMz5YoBiIsqEMUXcK/Lq37Taz81cYTKdIi9+Brdd4LvtYVLv2lP0VfaUcDtxnyEa44iuJzF5EhkuHFzqZ6iu/UW/sXI/TVIu89dB6kn5EY86LobOlaYWtcdJ3pzRmOhSHJM3u4S+f9HyGJP4ptXerr9asW0W5TKRpDxijR7qZD6LEhEY31tfSXBmgV8q+XF208dtt4TiG8apixalVORqi9/+zGbYa6I/NxXrHf3LwgBINKkrLsgeXW2Z056U7tvR60efTR+33RKWHAa+82u3a+2LcnX6pn6c3eQJqMgSTdJLrqi0OW49TCjrStLMHEqD5pb3Pvrsd5/8pHlr2rLdXwa3BTsIMIgFOwh6GCTzl0rvf/zbzz/9sFWljx8/Hu3tAg56rQU7CDAIRBmsY2zsXY9KXN6P6lTcJCVsrQQ96nI1b8YWUYL+63/HpBKXnxjrqCu5IlfOGFFC4YO9eVH5pgtGVKawMWWfMyjfL9dsBa7ZDVlEvlsZZM6gfL9cFxlMvhX6yfdSE8OA0Zg1yxnAGmCMDM+Ayg4WRq8Ag1iwg2BIg4ym7EPeJJgOHQN2xWjKDhaEDKLQMQSjGmQoZR/1JsFE6BiwN4ZSdrAgZBCFjiEY2CDjKPvAN6kI7CDAIBBl7I4xiLKPfZMApsMY2RWDKDtYGL0CDAJRhu8YIyj78DcJYCKMkb2xsbcLgAKjV7BFg6RetCvOp7bPjiLs4N6Rsp+XBwi22DFK2bzPvoebBBVstGPkvAHGqXzFVn8Pjneb72/XlrpdVdvuxToAm1d2sGxUyCBKVKl9EfcngHyHPdzfbodquJORsu1ozE5uEpTSqmOEMuqfie4v+vbxjt32yD8f3eq6tBkXr8kpvC4Ck5oSXGnhYU5FykzjSkjttmovCHc9tSfFlX75T0/f+fvY5byL0e6e4W+TpJQgkjJ33mgOPvsIMMN1IqqVwneO7mvqnxeHdZVezBLNpXeMTJV3yhjV9Gr0YsXJ6H8YIjWzVU6gQ43OyaWXUFd4Dzas7MiZBTsI+hkk9fYr7UgAAAQ7SURBVNxSqKo4n7psSl1uD9V59ubWpTMquNOLzbmmbvdq50QXedPhfqdGdeGX3bJjq8qOnMFspNQzGo1pQhj/Eam+k57S94ZjJBUSSZ0s+m8gv9ii1BR1gqvkqksKOWSQX9q24+zADCdobhA/aG7e9J19Se23y5LeNvvBxXx61GIj19G1kmFEO19tlWL9AisbHdCqY1j3PBpmWTD2ErJJZUfOYH6ivrNL6iGsrkzhwudUNHGbU4H/aNTJt3iAGT7PrCs2dU1Rg/uhPBQVz2aXZavRGDDMcAG9I+ypIEkPZ1l54noxtq7YoW6puPscim91kP1iKKaTjjcX3/vHe6kyi+o6Z5Bf2vaUHTmDKP06Rkq4ncLO8xjTb4xYimPyZpfUWsCL+IsR9WLzyywttkjo9ZKd4FarvCjBd+GnF96E7Sk7WJjhlsVfo2J6xtnDksXyGHHNxZWOLrqdKcFuxWGr9Y56seHCdj9Wk9L3cOlk6lepbjVLKMqZKCVML7wVG4uzI2cQpXfHUBa26yf1w4pKK8oRVEhzKku1t55ZrFJ+mDeVGvaNUsENr2+1HqYf+OybhBkOotAxBLs1yJZ89t3eJAF2EGzOIEpcfmJURwlGKw51Xa5OjWlIfsdQYuIr8cFL2Yyyb270AqToFJQ/mHOdYnbS2RW+JTgl0/3ke6mJgWjMxmCGE2AQiLLzjrENZd/5TQK4CGMEfLah7GBh9AowiAU7CDDIBpSdmwRR6BgAKTag7GBByCAKHUOAQcz6lZ2bBFHoGAAKa1d2sCBkEIWOIcAgllUrOzfJgh0EGASi0DEc61V2bhKADmMEUqxX2cHC6BVgEIhCx/BZqbJzkwB0GCOgUKnsn3/64Y8//nXbpkAIo1eAQSzYQbBpg7z/8W8///TDtmWu0Wff9E2CftAxADJZo7KDBSGDKHQMwaYN0sNhN1OUvVNAZtM3CfpBxwDIZ5LPTrS9HwgZRKFjCDZtkE4Ou5kejWkr7pu+SQ3BDgIMAlE23TH6ybox5nA+NzDNex99Zoz53Sc/mdSULd+ktmAKAQaxYAfBRg3y/se/Ncb0k/XHjx+3UXaL1XcAAFDop+mWxsoOAACL8/jxY1Y9AgCMBsoOADAaKDsAwGig7AAAo4GyAwCMBsoOADAaKDsAwGig7AAAo4GyAwCMBsoOADAaKDsAwGig7AAAo4GyAwCMBsoOADAaKDsAwGig7AAAo4GyAwCMBsoOADAaKDsAwGig7AAAo4GyAwCMBsoOADAaKDsAwGig7AAAo4GyAwCMBsoOADAaKDsAwGig7AAAo4GyAwCMBsoOADAaKDsAwGig7AAAo4GyAwCMBsoOADAaKDsAwGig7AAAo4GyAwCMBsoOADAaKDsAwGig7AAAo4GyAwCMBsoOADAaKDsAwGig7AAAo4GyAwCMBsoOADAaKDsAwGig7AAAo/H/Aqx/DavuoNUAAAAASUVORK5CYII=;" parent="1" vertex="1">
          <mxGeometry x="130" y="130" width="499" height="333" as="geometry" />
        </mxCell>
        <mxCell id="XpWYt62kPs5Sj3qlujiQ-1" value="" style="shape=image;verticalLabelPosition=bottom;labelBackgroundColor=default;verticalAlign=top;aspect=fixed;imageAspect=0;image=data:image/png,iVBORw0KGgoAAAANSUhEUgAAAcoAAALCCAIAAADRRQR7AAAACXBIWXMAADM4AAAzGQEm6t56AAAgAElEQVR4nOzdeVwTx/84/gnhFJAjIQkIcopiURFBAZFDPEDwAKt410rxbFXUaq2IVqu2Kpa2Wi+8awUv8CrQt1ovFAQvDgUBRQQ5BMINAZL8/phv55dPEmJAlqC+nn/42MzOzrz2yMtldrNLa2xsRAAAADqbkqIDAACAjxOkVwAAoASkVwAAoIRyB5bJysrq9DgAAOAj05H0ihDicDgIoZKSEjwBAABADAwOAAAAJTp49or17t27s+Lo/jIzMz/77DNFR9GlMjMzR4wYoegourvKykpFh/CxyczMRAh9BF83OHsFAABKQHoFAABKQHoFAABKQHoFAABKQHoFAABKQHoFAABKdHJ6bW1tPXLkSFxcHJkmoqOjHzx4IFa/pKQkLi7u5MmTf/75Z0JCQnl5eYe7Li0tPXLkSEZGRifWBG1paWnR19en0WjHjx+XnMvn82k02vTp099Z2Inq6+tpNBqNRvP09MQlJ0+exCU///wzRZ1KtWjRIoaEM2fOiFXLyspiMBhbt26lKIyGhgbc9YQJE3DJmTNncMmvv/76no1THfzH4b3ue5WHlpZWnz59WlpaXr16lZaWpqura2lpiWc1NDT873//U1ZW7tOnT3Nzc35+fnx8/JQpU9TU1KiOCrynhIQELpeLEDp9+vScOXMUHc7/kZKSwufz6XR6cnKy/Eu1trYqK3fO18HPz8/c3Bwh9PPPP3M4nC+++AJJu4uTyWSuWbPGxcWlUzqV4dGjR3iDSJ7fyCB1g5DCLgv+g0b54ICWlpadnZ2jo6OTkxNCqKysjMx6+/Zta2vrZ599NnToUFdXV0dHR11d3ZqamoSEhCNHjuAH0WZnZx85cuT169f4lPPOnTsXLlw4derUkydP0tLSTp06debMmcLCQtIml8vFFe7fvy8QCBBCFRUVf//994kTJ86dO/fs2bPOXbuQkBAGg0FOhBMTExkMxqZNm6RWTk5OZjAYe/bskfo/P5/PZzAYwcHBbfX1xRdfhIWFoe5x4nDq1Ck1NTVPT89//vkH51mEUGJi4sCBAw0MDDZv3kxqShYmJibSaLSNGzf6+PhEREQghO7evevo6KilpeXi4pKamoqr/fjjj8bGxpqamsOHD09JSZFRKMrY2Li+vh7vkfv375uYmJBZv//+u5mZmYaGRv/+/S9evEgi+eabb4YOHaqpqTl9+vSmpqb33zi+vr6rV69evXo1QojD4eDp/v374wPg559/njp16r59+8rLy3/++edbt24hhO7duzd8+HAbG5t9+/YxGIwNGza0VXj//n0vLy8TExNvb+/Hjx+j/44r0qxYMEZGRg0NDfjIf/jwYa9evcisgwcP2tnZGRkZOTs7x8fHk6bWrFkzatQoExOT4OBgHo8ntZAEj+d+991348aN692798yZM/E3V2rwn5ouGnttbW0tKSlBCGlqapJCLS0thFBmZubDhw9fv37du3dvPz8/AwMDU1NThNCbN28QQiUlJcrKykZGRniRgoICIyMjZWXlhw8f5ubmWllZNTQ03L9/n7SZl5fXq1cvFouVmZn57NkzHo+XkJBQW1s7ZMgQbW3tpKSkly9fduJ64T+7rl69ij9ev34dITRx4kTZS+H/+d3c3NrV17179/DXqWOLd6LGxsaLFy+OGTMmKCiopaXlwoULCKHq6mo/P7/y8vKQkJCoqChcU2oh9ssvvxQWFvbu3ZvL5Y4bN661tXXHjh0VFRUTJ06srq6+du3a+vXrXVxcwsPDX716NXXqVISQ1EIxlpaWLBbr3r17zc3Njx8/xv+pI4TS0tKWLl1qYWGxY8eO+vr6oKAgssjevXs9PDx8fX2joqLCw8Mp2mii3b1588bY2JiUVFdXz5gxo6amZv78+ZGRkTIKq6qqAgMD+Xz+Dz/8UFlZOXPmzJqamraaxczNzZlMZkpKSnNzc0ZGhoODAy7PzMz87rvvTE1NN23a1NDQsHTpUrLIkSNHXF1dR48eff78+T179sgoJE6ePDlw4MABAwbEx8f/9ddfUoP/BFGeXktKSo4cOXLixIn09HR1dfU+ffqQWQwGw83NTVNTMy0t7erVq1FRUfHx8U1NTTi9FhUVIYSKi4t79epFp9PxIlZWVo6OjlZWVgihoUOHOjo6MplM0Rcu9OrVy8HBwcPDg06n5+XlFRQU8Hi8gQMH9u/fH+ejnJycTly7ESNG6OnpkfR67do1MzOzQYMGIWmnBoToaUtycvKIESOsra137txJKkguO2HChIqKisTExNmzZ4su/vjxY19f3969ew8dOvTgwYPovxMQybOJTnTp0qW6uropU6aMHz9eTU0tOjoaIXThwoWqqqrQ0NDvv/9+165duKbUQszDwyM9PT0gIODChQvV1dVLliyZMGFCUFDQmzdvbt26hf/KKS8vZzAYsbGxf/75p0AgkFooFhuNRnNxcUlKSnr8+DGPx3N2dsblenp6Z8+ePXTokKOjI51OLy8v5/F4eNbYsWO3b98eFRXVo0eP06dPd+62kjR8+PA7d+74+fmRkri4uJqampCQkJCQkB9//PGdhUFBQT4+PrNmzSopKbl7925bzRJDhw5NTU3NyMjg8XiOjo64UFdX9+jRo7/99tvgwYPpdHpFRQXZICNHjty4cWNkZKSGhkZsbKyMQmLmzJk//fTTjh07EEL5+flSg/8EdcXgwODBgwcPHuzs7Ozv76+hoSE619LScsKECbNmzfLx8TEzMysuLk5LS9PQ0GCxWEVFRVVVVY2NjTjbYj169EAI4WyLp5WU/s8q6Ovr4wp6enr19fX19fUIIQaDgRBSV1fX1tauq6vrxLVTVlb28fFJSUmpqakpKyvLyMjAp64yTg1E1dTUTJ8+vaKiYtGiRefPn8eFUpc9dOiQrq6ug4PDL7/8Qhbncrmff/55fn5+aGiomZnZd999FxMTg2eJnU104iojhPB5aFpa2u+//85isa5evVpZWZmfn48Qsre3RwiR77DUQmz48OF4oqCgACEUHBxsbGy8Zs0ahFBWVtakSZPmzZuXlJQ0depUZ2fnmJgYJSUlqYWS4Tk7OyclJd2/f9/IyIgMDrBYrKSkJFtb29mzZ4sl5cGDByOEVFVVbW1ti4uLO2srtWXYsGFiJa9fv0YI4f+Vydml1EI8DrZ8+XJbW9sffvgBiZwuSDZLODo6pqamPnz4kMPhkMEBJpOZmpo6fPjwhQsXim2QAQMGIIRUVVVtbGxKS0tlFBJ4O+vp6SGEBAKB1OA/QV009mpnZ9evXz91dXXRWXl5eefPn8/NzVVWVuZwOHhnNDc3I4RMTU2bmpqePn2qpKQk+feODHgckM/nV1VVaWpq4rEI/NCNpqamuro6PCLRiSZMmNDa2nrjxo3r168LhUKcXmWcGoiKi4urrq5euXKl6H/yUpc1MDCg0+lqampMJlN0cS6Xu3z58vnz5+/du5dGo5FMKnY20YnrW1NT8/fffyOEdu7cGRoa+vr169bW1piYGAMDA4QQHr4gg9FSCzHyFwmLxUIIXbt2TSgU8ni8kpKSr7/+urKycsWKFWVlZWfPnh0wYEB4eHheXp7UQskIXVxcsrOz//77b2dnZxqNhgsTEhJ27tx58ODB58+f29jYiNZ/8uQJQqi5uTkzM7NdB1vHkBUn8D7Fw6NpaWnvLIyNja2oqCguLs7KyiKD9ZLNEkOHDs3Nzf3f//7n6OhINsi///67e/fuiIiIlJQUa2tr0fr4iSrNzc1ZWVlkXE5qYVukBv8JovzOARkMDAzq6+uTk5NLS0vV1dXx/3j4XNXU1DQlJSUnJ4fNZrfrRoKioqIHDx7U1NS0trZaWVmZmJioqqqmpaUJhcKioiKhUEjuW+gs7u7uPXv2vHr1amNjIxkZwKcGixYtMjQ0lPwDlsAnbngRfA4l/7Lov/ETOzs7hBCDwTA1NSVX+cTOJjpjRf+fmJgYHo93+PDhL7/8EiFUXV3NZDJPnz69d+9eOp2+ZcuWurq6EydO4Mpjx46VLBTj6+uroaHx008/lZeXHzhw4NatW2lpabGxsWvXrl25cqWdnZ2Kioqqqqq2tvbhw4clCyUbdHBwUFFRiY+P3759OynE2SEuLi4zM/PatWsIIaFQiGfFx8eHhoZmZ2fX19fPmjWrE7eVnMaMGaOqqhoeHl5VVUX+g2yrUF1dPSIioqKi4tixY/fu3bt9+/Y72x88eLCKisq1a9c2btxICvFD8a9du5aVlYUHmohr165t2bIlNze3oaFhypQpMgrbtUafIEX+rKBnz55jxoxhMBivXr3CJ6pubm44L2hrazMYDIFA0N5nHhoaGubn55eUlHz22Wc2Njbq6upjx47V0tJKTU2tqqoaNmxYp6dXVVVVb2/vq1ev/vvvv+SiloxTA1F41CI9PR2JvANCzmURQvgkAp8dVFZWFhQUiF4XpggeGfD29sYfdXR0XFxcrl+/3rNnz23bthUWFm7bto2MAFpYWEgWijExMYmNjS0tLf3yyy+5XO6VK1f69esXEhKycOHCkydPBgcHNzY2njp1isViSS2UbFBdXd3e3l4oFJKBV4TQ5MmTdXR0zp49m5GRga+J3bx5E88KDg6Oi4u7fv36smXL2hrGoVSvXr0OHDigpKT022+/kUOorcI///zz7du3X3/9dVVVVVRUlOjFjLaoqakNHDhQKBSKjs+MHz++Z8+eFy5cePbs2aRJkxBCiYmJeNacOXOuXr16+/btBQsWzJ8/X0Zhu9boE9TJZ6/Kysr4pEZsui1sNpt8UcVwOJyKigqSXtlsNmlt4MCBAwcOxNM+Pj6SFUQxmcxx48aJdfrOwNpl4sSJ+JIIOZJknBqIGjlyJJ1O37VrV319Pbmo0taympqa+fn5jx8/JmMs3t7eOjo6+N6mq1evCgSCadOmdeJ6SYV/MyKK5Klvv/12xowZOjo6WlpaW7ZskVFIzhyxMWPGjBkzRrRETU1t7969e/fufWchoampSZpNSkoi5aQwLy+vqakJ/w/0559/ov8SiqWl5R9//CHf2rdPRUWF6Mdhw4aJlvTr1w9/rKioMDIySkhIYDKZT5482b59O4PBkFqIEPL09CS/m5DaLNGjRw9S/s8//0hG9eDBAx6PZ2hoiBDCd3ThO4XNzMzwsJIosUISvGiDhoaGMtZIvm32UemmP4p9/fp1QUEBk8ns9KFSKnh6emppaZmamuI/85HMUwNRZmZm69evf/PmTUREBMkvbS27aNEiHo934MABsjiDwTh79qyJickPP/yQk5Ozbdu2zz//nOqVla1Xr16Su0xqYddjMBhdcHbfAS9fvhwzZsyCBQtyc3P37dtHo9GGDx8utbBz+9XX18e5tdN1QfAfBEWOvcpw8+ZNdXV1sWvN3ZaamtqrV69ESywtLSVPDZDI//Nk4ptvvvn888979uypqakZGhqKC6UuO3/+fPJHGVnc3t4eX2giRM9lyNkE6M4cHBw2b9584MABNzc3IyOjXbt2DRkyBCEktfCD0NYafWpoHbgpMisrC7/BUFVVlYKQuil4GQyQCl4G0+ngZTAAAABkgfQKAACUgPQKAACUgLFXIAv+kTGQAcZeQVvg7BUAACgB6RUAACgB6RUAACjxXj8rgIE5AOBbANoCZ68AAEAJSK8AAEAJSK8AAEAJSK8AAEAJSK8AAEAJSK8AAEAJSK8AAEAJatPrF198oaKioqKiQqPR6HQ6nk5OTk5ISBg/frz87WzdurV3796Sr/9NSEjAL4MhE+2SnJzcsSd2y16wrWjfX2BgYE1NTYfDfk/t3Wuo8zYFn89XUVERLZFzI+At1oHIOwCvbFxcXKfvnc7a7x/ocYsXl3OW2F7oWGboNI3t9+jRo+Li4uLiYqHcXF1do6KiyMf4+Hg/Pz/5F2ez2SUlJZLl8fHx3t7eohPtUl1dnZyc3N6l3rlgW9G+PyaTWV5e3uGw31N795qw8zZFa2ursrKyaImcGwFvsQ5E3gF4ZanYO5213z/Q4xYvLucssb3QsczQWRQ2OMDj8YKCgkxMTLy8vPCL5mNiYmxsbFgs1owZM2pra0nNOXPmlJeXe3p6lpaWHj161MrKisVizZ49u63/0MTqjBgx4syZMwihffv2KSsr19XVIYR8fX0PHjyYk5OzZMkShFBCQkJgYKC/vz+Hw/Hy8nr8+DFC6MSJE+bm5ubm5mFhYebm5qJdyFhQRrQJCQmzZs1auHChn59fQkKCr6+vm5sbg8Hw8/O7cuXK4MGDTU1NDx06hLtYu3Ytk8nU0dEZO3YsfqHLnDlzuFyuq6trcnIy7l1yZaWuCHHq1Kk+ffowGIygoKDW1lapvchuoampafbs2Uwm097ePiUlBRd2YMeJnk7i8wup/R48eNDMzMzU1PSXX34R28uy9x0JAG8xLpcr//EmdUO9czuTlRXdO5KHkNQVJ0cFRfv9gz5uyeJhYWH4Fb+NjY1WVlb3798ns8gZt9S9QMjY41RR1NkrQujSpUt8Pn/58uUzZ858/vw5g8HIzMxsamoKDAxcvny56OJMJrOqqurRo0dsNjszM7OhoSEwMPCbb76RPHuVrLNhw4alS5cKhcIvvvhCW1v7+vXrAoFAT08vLy8vNTXVwcEBL06n02NiYlpaWubPnz9t2rSnT58aGhpmZWXV1NR4eHiYmZmJxiNjQdnRamtr79q16+3bt3gLpKamcrlcMzOzwYMH19fXX7582djYWCgUJiYmGhkZFRUV1dbW+vj47Nixg2yH8vJy0rvULiTjwfAaZWdnl5SUODo67t+/X2ovMlrAMUdGRra0tPz+++8mJiY8Hq/DO46cTuJ9J9nvgwcPGAzGo0ePGhoaJk+eLHb2KnsXiAaAz17lP94kN5Sc2xmvLAlM6iEkdcXJUUHFfv/Qj1uyeHNzc//+/a9du7Zhw4YlS5aIzpI85ETXFGcG2QcqRRR29mpkZOTn56ekpDRy5Mjq6uqoqKiAgID+/furqamtXLny3LlzkoucO3du7ty5/fv319DQ2LRpk5x1vLy87ty5gxBKSkoKCgq6e/fu06dPdXR0LCwsRBdkMBgTJ05UVlaeOHFiVVVVdHT0nDlz+vbtq62tvWrVKhkrIrag7Gh79eoVEhLCZDIRQkOGDBkyZIiurq6zs/OcOXN69Ojh4+NTWFjI5/Pt7OzS09ONjIxqa2tVVVWrq6uldi21i7biOX369OzZs62trdls9uHDhwcNGtRWL221gBDq06dPUFCQsrLy119/rays/PDhw87acZL9xsTEzJ07187OTkND44cffujALhAl//EmuaHatZ0J+Q8hclRQsd/bu9G623FLqKio/PHHHwsXLjx+/Dh5o7v85DlQO53C3hRrZ2eHJ5SUlBBCBQUFV65cGTBgAC7U19cXCoU0Gk10kZKSksGDB+NpU1NTPE4k1qxknWHDhuXm5ubn59PpdD8/v127drFYrFGjRknGg7uj0+kIoaKiItKOsbGx7BURXVB2tCYmJqSCgYEBnqDT6XgabwqEUHNzc0hISGJiopWVlYy/YqR20VY8hYWFpLKtrS1CqKqqSmovbbWAeyHTFhYWpaWl77/jyLRYvyUlJeQgMTMza2sjyA5YtA6eeOfxJrmhIiMj5d/OxDsPIbLi5KigYr/L2CAfxHEryt3dXVVVddy4cTo6OvKsoyh5DtROp7D0SnYJxmazJ0yYgF86XV9fn52dLbnmHA7n9evXeLqgoIDNZstTR1VV1cXFJSIiwsnJadiwYSkpKQwGw9fXV3Y8ou28efNG/hWRHa2ch/6uXbtqamoyMjLU1dXXr1/fVjWpXbQVD5vNJiuSkpLy+vXrx48fS+2lrRZwL2T61atXJiYmHd5xAoEAl+CRUMl+DQ0N8/PzJfuVJCPgturICFtyQ7VrOxNtHUKSK06OCir2e1s+lONW1JkzZ7S1taOiolauXCma8eUhz4Ha6brLfa8BAQGxsbG5ubn19fVLly7dvXu3ZB1/f/+jR4/m5OTweLwNGzYEBATIWcfLy+vQoUPOzs5aWlomJiaxsbGenp6y4/H39z9+/PiLFy8aGhoiIiI6sCfkibYtNTU1bDZbTU0tPT392LFjzc3NZBaPx+tYFwEBAUePHn3x4kVFRUVISMjr169l9NKW58+fHz9+XCAQ7N27l06n29nZdWzHaWtr37t3r7S0tK6uLioqSkbAGRkZzc3NGzdufGdsbRHdYqKNtxW25Ibq2K6UegjJXnEq9nt7dZPjViAQJCYm4gvRePGamppVq1YdOnQoJCRkxYoVUluWQZ4DtdN1l/Rqb2+/bds2b2/v3r17V1VVhYeHS63z448/ent7m5qa0un0rVu3ylnHy8urrq7O2dkZIeTq6mpubs5isd4Zz/r1693c3BwdHd3c3HR1dTuwRu+Mti3Lli178OCBkZHRypUr169ff/z48dTUVISQn5+fo6MjeblTu7qwt7fftGnT6NGj+/bta21tvXjx4rZ6kcHb2zsqKorNZh87duzcuXNKSkod23HDhg2bMWOGvb29sbGxl5eX1L7s7Oy2bt3q5+eno6ODL1nIte3+L7zFuFyuZEhthS25oTq2K6UeQrJXnIr93l7d5LhtbGx0dXXNzs4miy9fvnzq1Kn9+/cPCQlJS0v7559/yCx57tWV50DtdO/1KkP870fp/v370dHR27ZtU1VVXbduXWVl5d69exUdFPiQwCEEFDb22s3Z2dlFR0d7enrW1dWZmZkdPHhQ0RGBD4wCD6GsrKxff/1VrFBTU3Pnzp1dFgNAcPYKAAAU6S5jrwAA8JGB9AoAAJSA9AoAAJSgNr12w6fGEceOHXvn3a/ykPG0tE6pL5vkk/q6sncAgAzUplcbG5s9e/a8s9r169dbWloojUSSpqZmjx493r+d9gavkJXtJr0D8EmhNr0q/Klxoo96E2tq8ODBDg4OfD5/4cKFBgYGBgYGYWFhYvG/8zF6JPioqKgJEyZ4eXnp6Og4Ojri4GXUJzdCJyQkSF1QNHLJxzBKPqlPsi/JTSTZO2rjmYQytpvURQAAUlD6QEKFPzWOPEitrabOnDkzePDgysrKly9f9uzZMzs7m3Qhz2P0xILft28fflifpaVla2urjPqkl7YWJJFLhiH1SX2SfUluIsne23omoYzt1tZD5wAAYrru0pZCnhpHHqTWVlNMJpPL5WZkZPTu3bu6utra2pp0Iedj9Ahzc/MFCxbgh/UJBIJHjx7JuWWkLkgilwxDzif1SW4iyTptPUFOxnaT86FzAICu+9WWQp4aRx6r01ZT7u7uX3311dy5c7lc7qxZs3bu3KmqqorryPkYPULsYX1FRUXq6uoy6stekEQuGcY7n9SH+5LcRJLaeoKcjO3G4/HkeegcAKDr0qtCnhpHUnlbTRUWFs6bN2/dunVZWVnTpk27cOHClClT8CJyPkaPEH1oXkFBAYfDqaqqklFf9oIkcskw2npSn1hfkptI8tFEbT1BTsZ2++WXX+R56BwAoLvc90r1U+Paaio6OjowMJDH4+EnwzY0NJBF5H+MHg7+xYsXhw8fFggE+/fvb2lpsbe3l12fkFxQdK5kGFKf1CfZl+Qmkuz9nc8klNxuUhcRe3wcAAChLry0Rd7XKPnuxrlz5xoZGZ06dYpcnLl8+TKePnz4sKWlpb6+fkBAQGVlpehShw4dsrCwYDAYX375ZXNzs1AojIyMtLCwYLPZs2bNqq6uFutIalM1NTUTJkzQ09NjsViLFi1qaWkR7UKswdbW1iVLlhgZGeno6KxcuRI3ToJ3dnaeMmUKfs3fgwcPhEKhjPrklZzx8fGSC4pFLhaGUCg8cOCAqampurr6lClTOBxOW31JbiKx3l+8eOHg4MDhcEaPHn3gwAEOh5OSkiJ7u0ldBCfW1NTUdx4SAHw64JEunSMhISEiIiIuLq7LFgQAdHPdZXAAAAA+MpBeO8egQYO+++67rlwQANDNweO0OweHw+nYUEmHFwQAdHNw9goAAJSA9AoAAJSA9AoAAJSA9AoAAJSA9AoAAJSA9AoAAJSA9AoAAJSA9AoAAJSA9AoAAJSA9AoAAJSA9AoAAJSA9AoAAJSA9AoAAJSA9AoAAJSA9AoAAJSA9AoAAJSA9AoAAJSA9AoAAJSA9AoAAJSA9AoAAJSA9AoAAJSA9AoAAJSA9AoAAJSA9AoAAJSA9AoAAJSA9AoAAJSA9AoAAJSA9AoAAJSA9AoAAJSA9AoAAJSA9AoAAJTo6vTq7e1N+8+CBQvatSyfzyfLRkdHd2Ll7kkgEERHR0+aNGnQoEE9e/bU1dXt16/fzJkz4+LiWltbFR0dAOAdlLuys/Ly8mvXrpGP586d27Nnj7Jyl8bwocjLyxs/fvyzZ89EC6urq7Ozs//66y9bW9vY2FhLS0sya9GiRYWFhQihwMDAWbNmdXW43SwMALqDLk1tZ86cET3tqqio+Pfff0ePHt2VMXwQGhsbJ0+eLJpb9fX16+rqmpub8ceMjAw/P7+HDx9qaGjgkhs3bmRlZSGE7Ozsuj5gopuEAUB30KWDA1FRUWIlp0+f7soAPhTR0dFPnjzB0ytWrKioqKioqGhqanrw4MHIkSNxeVZWFmw9ALqzrkuvhYWFt2/fxtOurq544vz58y0tLV0Ww4fiwYMHeMLW1jY8PFxfXx8hRKPR7O3tL168aGhoiOfeuHEDIVRUVJScnNzY2IgLCwsLk5OT375928Uxd5MwAOg+ui69nj59WigUIoRYLNZvv/2GCysrK69fvy61fn19/YoVK0xNTXv27Onp6bljxw4Z13PkrBweHo4vduEMdeXKFUdHR2NjY1KBx+Nt3brV29ubzWazWKwRI0b88ccfUpu6ePGij4+PlZWVhoaGhYXFqFGjjhw5IvlfhZzVxLx+/RpP0Ol0sVmamprbtm1btWrVqlWrhg8fjhCKjIx0cnJ69c9ySFoAACAASURBVOoVrnD06FEnJ6eLFy/KXl+xWURycjK5JJiXlyc6C2+ccePGGRsb6+vrDx8+PCwsrK6uDs+VPwzZfXXiPgJAwRrb79GjR8XFxcXFxcL2cHBwwD0uXLhQKBT27dsXf5w3b55k5devX0sO3k2dOpVMR0VFdaDyzp07cQmHwzl79qySkhJCiMlk4rnPnj0bMGCA5Cbq06fPs2fPSHcCgeDzzz+XujFtbW2rqqraVU2qFStWkMpffvllZmamjMobN26U7CIyMlL2+orOEm0tKSmJNJKbm0vK09PTP/vsM8mOOBwODk/OMN7ZV6fsIwC6gy5Kr7m5ueSbcP36daFQGBoaij/q6ek1NzeL1SejBwghLS0tNpst9nUSTa/yVyZfXV1dXXImhb+6ra2t5HtrYGAwc+bMyZMna2pq4hIzM7OGhgbcyL59+0S/1f7+/s7OzjQaDZdMmzatXdWkevTokdgNFSwWy9fXNzQ09OzZsxUVFZKL9OvXD9cMDQ0lhTLWt10pr6WlpX///qTcwsLCycmJRNi/f3+ycWSH0a70+j77CIDuoIvS6+bNm0maaG1tFQqFaWlp5Kv1999/i1a+fPkymRUaGorrnz9/Xl1dnZSTjNmuyuSrixBSUVEJDg4+cODAsWPHhELhH3/8gctNTEzKy8tx/ZycnJ49e+LyXbt24UJ/f39cMmXKFBLz4cOHcaG2tjaOQc5qbTl+/Liuri6Shk6njxgx4s6dO6L1Zec1yfVtV8ojgzl0Ov3ChQu48N69eyoqKrg8NjZWnjDalV7fZx8B0B10UXolf1fikQGMjA/MnTtXtPKkSZNwubOzs2j5qlWryBePZMx2VRb96v7555+i9UeNGoXLN23aJFr+1Vdf4fIRI0bgEg8PD1xiaGi4Z8+eV69eCYXCxsbGG//h8XjyV5OhtLT0119/9fX1JelDlJKS0tGjR0nld6ZXsfVtV8ojGycwMFC08vz5862srKysrLZs2SJPGO1Nrx3eRwB0B11xaSsjIyMzMxNPT5kyhZST4dHY2FhyRydCCN84iRCaPHmyaDszZsyQbLxdlQkVFZXAwECp7YSFhdFEREZG4nKyCuPGjcMTxcXFS5YsMTU17dOnz/Lly8vKyoYMGeLu7q6qqip/NRlYLNbSpUsvX75cVVWVk5MTHR29ZMmSXr164bkCgSAkJKSmpkZ2I22tb7tkZ2fjCU9PT9Hy/fv35+Tk5OTkfP/99x1uvC3vs48A6A66Ir2eOnWKTHt5eZFvBRkxqKqq+t///oen+Xw+uYhMUglmbm4u1nK7KovS19cXHdzk8/lFRUWy14LL5fL5fITQqlWrNmzYoKenR2bl5ubu379/6tSpRkZGe/fuxYVyVpMHjUazsrKaOnXq7t27X7x4MWfOHBJSenq6PC2IrW+78Pl8/EMs3E7HGumA99lHAHQHXfGrLclfE0g6ffq0r68vQohOp6urq+Nbl4qLi0Xr1NbWii3VrsqiyCUm0g6Hw8EthIWFjRkzRupS+DYpGo22cePG0NDQpKSkuLi4uLi4x48fC4VC3OmSJUuGDh06ZMgQOatJ9iIUCqdMmcLj8RBC/v7+8+bNE52rqqq6bt2648eP448lJSUyVrOt9RXrTvaydDqdxWKVlpYihMrKyuTprsN9iXqffQRAd0B5er1///6LFy/eWS02NpbH46mpqSGErK2t8X31sbGxISEhpM6VK1ckF2xXZRn69u2Lv7p0Oh3fT4rV19fjWzvx97a+vj4/Px/PGj58uKur65YtW0pLS48ePfrdd98hhIRC4c2bN/v16ydPNanplUajvX379tatWwihgoKC2bNnkytIGLkrFiE0cODAdq0mQdIQl8sVCAT4/ieE0Js3byQr9+3bF6fXmzdvLlmyhJQvWbIEx/nFF1+IDna/T18yyLmPAOgmKB8cIKeuDAaDx+O1/l937tzBc2tqav755x887ejoiCdu3bq1efNmgUCAELp9+za5l0tUuyrLQIZKjxw5Qs7R3r59O3DgQA6Hw+FwNm3ahBCqqKiw/Q++Zx4hxGazv/rqKy0tLfyRxWLJWa2tYLy8vPBEWlqav79/WloaPu/j8/lxcXHkfJbJZFpZWYktW19fL8/6mpmZ4Ynm5mZyNSktLW3NmjWSlceOHYsnzp8/T1bnzp07Bw4cyMjIyMjIsLW1lRFGu/qSQc59BEB3QemdA3w+nwyJzpo1S2oFBoMhViEvL0/0fE1HR6d3795iYZObAdpVua1L2EKhsKmpycLCAs9ls9mBgYGTJk0it0YxGIyioiJck6QSJSWlESNGTJ8+3c/PT7RmWVmZ/NWkamhoGDx4sOgqqKmpcTgc0bFIGo126dIlsgi5+VdPT2/BggWJiYmy17egoEB0u+nr60veL0yu5jc2NpKxbBqNNmDAAFdXV3Kq6ODgQO6CkBpGu/rqlH0EQHdAbXrFP4rHTp06JbXO9OnTcQVtbe3GxkZcuHr1aiQhODiYTIv+rED+yjK+ukKhMCUlReoFMSMjo/T0dFItNzeXw+FIVkMI6ejokNtC5azWllevXjk5OUldHCGkq6u7d+9e0fpiJ26yfy6FrV+/XqxZJSUl0TNK0V9tJScnk9QmytzcPD8/X3YY7eqrU/YRAN0Btel14cKF+Oin0+mVlZVS65w4cYJ8SWJiYkj5tm3b8MUNDQ2NESNGhIeHi/5UXzS9yl9Z9ldXKBTW1NR8//33Hh4e+vr6LBbLxcXll19+qa+vF6tWW1u7e/duDw8PS0tLDQ0NLS2tvn37Ll68WGybyFlNhoSEhGnTpg0dOpTFYvXo0cPGxmbcuHFbt26trq4Wq9nU1PTtt9/27t1bXV3dwsLi4sWL8qzvyZMnnZ2ddXV1dXR0vLy8bt682daPYoVCYV1dXVhY2KhRo9hstr6+vqur67Zt28j/iDLCaFdfnbWPAFA4WuN/jziSX1ZWFj4va+vsrLNkZWVdvnzZ1dVVxnlcxyoDAADVunV6BQCADxe8yhAAACgB6RUAACgB6RUAACgB6RUAACgB6RUAACgB6RUAACgB6RUAACgB6RUAACgB6RUAACgB6RUAACgB6RUAACgB6RUAACgB6RUAAChB7bu2Ll26RGn7AHS68ePHKzoE8JGg/FWGcLCCDwiNRhO253W2AMgAgwMAAEAJSK8AAEAJygcHCPwuLCrgv+aoax989GBAAFCh69IrouYgFr16Bl8S0AFwARZQBAYHAACAEpBeAQCAEpBeAQCAEpBeAQCAEpBeAQCAEopJr/X19TQRpqamy5Yta2pqyszMpNFo69evRwhNnjx51apVCgmv+yAbytPTE5ecPHkSl/z888/v2bjo1gYAdLouvTFLjJmZ2dy5c1tbW69du/bbb7+xWKz58+dv3LjRzc0NIXTr1q3KykoFhtetpKSk8Pl8Op2enJzcWW2yWCyytQEAnU6RgwNmZmYbNmzYvHnzX3/9hRDKyckpKyvbuHHj9evXPT09y8vLb9y44e/vjxD68ccfjY2NNTU1hw8fnpKSosCYFcLY2Li+vj4jIwMhdP/+fRMTEzLr7t27jo6OWlpaLi4uqampuPD33383MzPT0NDo37//xYsXEUKJiYk0Gm3p0qWurq7a2toTJkxoaGggW1vqXITQ7du3bW1tDQ0NIyIiaDTat99+q4i1B+BDpcj0+urVqy1btmzatGnOnDk9e/ZcsGABmRUVFaWnp+fk5HTgwIFr166tX7/excUlPDz81atXU6dOVWDMCmFpaclise7du9fc3Pz48WMnJydczuVyx40b19raumPHjoqKiokTJ1ZXV6elpS1dutTCwmLHjh319fVBQUGkncOHD9vb29vZ2V26dOno0aNivYjNraqqGj9+fHV19TfffLNnz54uW1kAPhqKHBx4+fJlaGgonv7ss8/Mzc0rKirwRzabTafT1dXVDQwMysrKEELl5eUMBiM2NpbH4wkEAiWlT+iiHI1Gc3FxSUpKsre35/F4zs7OZ86cQQhduHChurp6yZIlPj4+tbW1a9asuXXrlp2d3dmzZ+3t7cvKyuh0enl5OY/Hw+3Mmzfvt99+S09PHzhwYF5enru7u2gvYnNx49u2bVu0aNGAAQMmTJiggDUH4EOmyCTl4eEhFAqFQmFycnJOTo7o2auoSZMmzZs3LykpaerUqc7OzjExMZ9UbsWcnZ2TkpLu379vZGREBgcKCgoQQsHBwcbGxmvWrEEIZWVlsVispKQkW1vb2bNnCwQC0UZMTU0RQvr6+gghsVmSc1+9eoUQsre3RwiR82UAgPy6RZ4aOnSooaHh/fv3xcrxMwQqKytXrFhRVlZ29uzZAQMGhIeH5+XlKSJMRXJxccnOzv7777+dnZ3Jw2tYLBZC6Nq1a0KhkMfjlZSUfP311wkJCTt37jx48ODz589tbGw63CNuHA/4Pnz4sDNWAoBPiyIHB/DYq1AoTE1NffXqVUBAgOhcLS2tFy9epKamXr16de3atStXrrSzs1NRUVFVVdXW1lZUzIri4OCgoqISHx+/fft2Uujr66uhofHTTz+Vl5cfOHDg1q1baWlpmZmZCKG4uLjMzMxr166hjj7pxtfXV1VV9ccff+RyuUeOHOmsFQHg06HIs1c89rp+/fr79+/PmDFj7969onNDQkKampp+//33kJCQhQsXnjx5Mjg4uLGx8dSpU/jE6pOirq5ub28vFAqdnZ1JoYmJSWxsbGlp6Zdffsnlcq9cudKvX7/Jkyfr6OicPXs2IyMDXwa8efNmB3o0MTH566+/lJSUfv755ylTpnTamgDwyaA1Nja2d5msrCwOh4MQwv/KcOnSJfIyGIpes0G6gNd4EBUVFU1NTb169XqfRsrLy/Py8szNzVks1oMHDxwcHH7++efVq1d3VpDdRxccpeDT1C3GXkHnYjAY75lbEUK5ublOTk6zZs3Kzs7+9ddfaTSa2J0GAADZIL0C6ZycnMLDw58/fz5o0KB79+7t379/2LBhig4KgA+JIi9tgW5uxYoVK1asUHQUAHyo4OwVAAAoAekVAAAo0aWDA1S/Mw7eSQcA6D66Lr1Sfb8L3E8DAOhWYHAAAAAo0XVnr+SX8p0On7dS1z746MGfPoAKXTr2StGvtihtH3z0YMgeUAQGBwAAgBKQXgEAgBKQXgEAgBKQXgEAgBKQXgEAgBIKS6+5ubkjR47U1dV1dnZ+8eKF2Fx3d3faf8izONslMzPTx8eHyWSy2Wx/f3/JLrCEhAQfHx/5mw0MDKypqZGnTkJCgvyR19fX02g0ZWVlFRUVZWVlBoMxZ86cdj2KNzk52dHR8X3ClhoMfoz37du35Y+kXSsOwEdMMelVKBTOmDFj8eLFb9++9ff3l3ws04sXL/Ly8urq6urq6vBbUdtFIBD4+vqOHj06JyenoKDAwcHB39+/UyK/fv16S0vL+9eRqqKioqWlpbW19c6dOw8fPty9e7f8y9rY2Mh4XXYHQsLBlJSUTJ8+PTAwEG56A6C9FJNeb9++TaPRPv/8cxUVldWrV8fGxqL/TpoePHjQ1NRUVVVlYWGhqampqamprq7e3vaLi4sLCgqCg4P19PTU1NTWrl1rbW1dV1eHEIqJibGxsWGxWDNmzKitrRVdSnLWqVOn+vTpw2AwgoKCWltb58yZw+VyXV1d37x5s3DhQgMDAwMDg7CwMNFGSB0ul8vj8YKCgkxMTLy8vJ48eSK7d1E2Njbu7u74RbBSlzpx4oS5ubm5uXlYWJi5uTlCKCcnZ8mSJQghPp8vFhsJqbS0VKyphISEWbNmLVy40M/PT2okurq6wcHBpaWl+FR67dq1TCZTR0dn7Nix+K3pCQkJgYGB/v7+HA7Hy8vr8ePHZNns7GwTE5M7d+60d/cB8JFobL9Hjx4VFxcXFxcL3+XixYtkGiFEpnfv3u3n5zdjxgxzc/MJEybk5+cLhUI+n3/jxo3a2tpnz57p6uoOGTJEV1d31KhReXl58nQh2r5QKLS1tR0xYsTZs2erqqpI4fPnzxkMRmZmZlNTU2Bg4PLly+Pj4729vaXOevr0qaGhYXZ2dklJiaOj4/79+4VCIZPJLC8vP3PmzODBgysrK1++fNmzZ8/s7GzRrnGd+Ph4hNClS5f4fP7y5ctnzpwp2QVZBKd+Emp6erqlpWV8fLyMwLKysmpqajw8PMzMzIRCYWpqqoODg1AolBobDknq6mtra+/atevt27dSgykvL9+2bRveRImJiUZGRkVFRbW1tT4+Pjt27BAKhfHx8XQ6PSYmpqWlZf78+dOmTYuPj/fz83vz5o2lpWVMTMy7jhHFa+soBeA9Kebsta6u7vLlywEBAU+ePLG2tp4+fTpCSElJyd3dXUtLq6amxsXFJTo6uqyszM7Obtq0aR3o4t69ez4+Pjt37mSz2W5ubvgcKioqKiAgoH///mpqaitXrjx37hypLznr9OnTs2fPtra2ZrPZhw8fHjRoEKnMZDK5XG5GRkbv3r2rq6utra2lxmBkZOTn56ekpDRy5Mjq6moZvWNsNltDQ0NNTW3AgAHu7u5jx46VGlh0dPScOXP69u2rra29atUqsUZkxCY1gF69eoWEhDCZTLF2GAyGiooKm80ODQ3Fr9iys7NLT083MjKqra1VVVWtrq4mNSdOnKisrDxx4sSqqiqEUHV1tY+Pj5OT06RJk+TfZQB8ZBTztgIdHR17e/vJkycjhEJCQsLDw6uqqnR1dfHcoUOHXrlyBU9v2rRJS0ursrJSX1+/XV1oaWmtXbt27dq11dXVkZGRnp6eeBz2ypUrAwYMwHX09fWF/w0pSs4qLCwcPHgw/mhrayvauLu7+1dffTV37lwulztr1qydO3eqqqpKxmBnZ4cnlJSUpHYhFApFH5VQWlqqo6ODEEpNTR07duzs2bM9PDwklyoqKiKBGRsbi3UqIzapAZiYmEjdgBUVFTo6OkKh8NatWxMmTLh79y5OxImJiVZWVqIjG3Z2dngt6HQ6Lrl9+/ayZcsOHTpUWFgoGSEAnwjFnL1aWloKBIL/F4GSkpKSEvlmIoSSkpLIgF1VVRWNRlNTU2tX++fPn/f19cXTOjo6K1eudHV1vXHjBpvNnjBhQnp6enp6elJS0uHDh0l2k5zFZrPfvHmD56akpJw/f560X1hYOG/evLy8vLt37966devChQtSw8BZlZDRuxgHB4eRI0fi4VrJpTgczuvXr3FNEqE8sUkNQHTLS8JvMBw2bNjt27d37dpVU1OTkZERHx8/cuTItlYTITRy5MiIiIhp06atW7dORuMAfNwUk149PDyKi4sTEhIEAkFERMSIESO0tbUFAkFiYmJdXV15efnkyZOzsrLw3NGjR2tqararfTc3t5SUlIMHD9bU1PB4vLi4uLS0NDc3t4CAgNjY2Nzc3Pr6+qVLl4pempecFRAQcPTo0RcvXlRUVISEhJCMxuPxoqOjAwMDeTwem81WVVVtaGgQC4DH40lGJaN3SQYGBngMVHIpf3//48ePv3jxoqGhISIiQixHtxUbj8drVwBEVlZWSkrKgAEDampq2Gy2mppaenr6sWPHmpub21qkR48eCKHNmzfHxsY+fPhQnl4A+PgoJr2qqKhcunRp/fr1HA4nPT39xIkTCKHGxkZXV9fs7Gw/P79vv/124sSJhoaGeXl5R48ebW/7TCYzLi7uzJkzxsbGxsbG27dvj42NtbCwsLe3xxdqevfuXVVVFR4eThaRnGVvb79p06bRo0f37dvX2tp68eLFCCE/Pz9HR0d/f389PT1DQ8N+/fo5ODjMnDlTtHdch8vlikUlo3dJlpaWeGxUamDr1693c3NzdHR0c3MjgyrYggULJGPDIfXq1Uv+APBAsLq6+siRI9etWzd8+PBly5Y9ePDAyMho5cqV69evP378eGpqqowWOBzO6tWrV65cKaMOAB8xWrvuXceysrI4HA5CCP8rw6VLl8gd5jQaTUjNAwlxFxS13w3dv38/Ojp627Ztqqqq69atq6ys3Lt3r6KD+oB1wVEKPk3wo9gPD75i5unpOWjQoIyMjB9++EHREQEApFDMnQPgfaiqqsr+ux4A0B3A2SsAAFAC0isAAFAC0isAAFCiS8deqX5nHLyTDgDQfXRdeqX6fhe4nwYA0K3A4AAAAFCi685e2/p9/fvD563UtQ8+evCnD6BCl469UvSrLUrbBx89GLIHFIHBAQAAoASkVwAAoASkVwAAoASkVwAAoASkVwAAoISC02tmZiZ+u5SY2NjYPn369OzZ093dPTMzs2Mt+/j4MJlMNpvt7+//4sULqdUSEhJ8fHzkbzYwMLCmpkaeOgkJCeQpou+EX0KurKysoqKirKzMYDDmzJnTrkfxJicnOzo6vk/Y7e2lrdWUHYlYSO3aSu2q3InLAtAxikyvfD7/yy+/lHynSFlZ2dy5cw8ePPjmzZuhQ4d+/vnn7W1ZIBD4+vqOHj0av77QwcHB39+/U2K+fv16S0vL+9eRqqKioqWlpbW19c6dOw8fPpTzZS2YjY3Nnj17Oj0kGb201absSDo9JAC6LUWm1x07dvTp04d8xGdwDx48SElJ6devn4eHh5aWVmhoaHZ2Nn69s/yKi4sLCgqCg4P19PTU1NTWrl1rbW2NX10VExNjY2PDYrFmzJgh+rpTqbNOnTrVp08fBoMRFBTU2to6Z84cLpfr6ur65s2bhQsXGhgYGBgYhIWFiTZC6nC5XB6PFxQUZGJi4uXlhd9LKKN3UTY2Nu7u7gUFBW0FduLECXNzc3Nz87CwMHNzc4RQTk7OkiVLEEJ8Pl8sNhJSaWmpWFMJCQmzZs1auHChn58f6X3EiBFnzpxBCO3bt09ZWRlvN19f34MHD5JeZKwmqZOQkBAYGOjv78/hcLy8vB4/fvz+W6mpqWn27NlMJtPe3j4lJQUXrl27lslk6ujojB07tqKiQnbX2dnZJiYm5F2ZAFCosf0ePXpUXFxcXFwsfJeLFy+SaYSQ6KynT59+9tlneXl56urquITP59+4caO2traurq6iogIXXr9+3cLCQp4uxNq3tbUdMWLE2bNnq6qqSOHz588ZDEZmZmZTU1NgYODy5cvj4+O9vb2lznr69KmhoWF2dnZJSYmjo+P+/fuFQiGTySwvLz9z5szgwYMrKytfvnzZs2fP7Oxs0a5xnfj4eITQpUuX+Hz+8uXLZ86cKdkFWQSnMBJqenq6paVlfHy8jMCysrJqamo8PDzMzMyEQmFqaqqDg4NQKJQaGw5J6upra2vv2rXr7du3JJgNGzYsXbpUKBR+8cUX2tra169fFwgEenp6eXl5pBcZq0nqxMfH0+n0mJiYlpaW+fPnT5s27T23Eq4cGRnZ0tLy+++/m5iY8Hi8xMREIyOjoqKi2tpaHx+fHTt2SO06Pj7ez8/vzZs3lpaWMTExUg8hyaMIgPehmLNXgUAQFBT0xx9/iL4CVklJyd3dXUtLS1NTU19fHyF04cKFGTNm7Ny5swNd3Lt3z8fHZ+fOnWw2283NDZ+tREVFBQQE9O/fX01NbeXKlfhdgZjkrNOnT8+ePdva2prNZh8+fHjQoEGkMpPJ5HK5GRkZvXv3rq6utra2lhqDkZGRn5+fkpLSyJEjq6urZfSO4bcHqqmpDRgwwN3dfezYsVIDi46OnjNnTt++fbW1tVetWiXWiIzYpAbQq1evkJAQJpNJqnl5eeHNlZSUFBQUdPfu3adPn+ro6FhYWMizmqKzGAzGxIkTlZWVJ06c2NafIO3aSn369AkKClJWVv7666+VlZUfPnxoZ2eXnp5uZGRUW1urqqpKApDsurq62sfHx8nJadKkSVIjAaBzKeZlMBEREUOGDHFzcystLZVagcvlzp8/PyMj4+zZs8OHD+9AF1paWmvXrl27dm11dXVkZKSnpyceh71y5cqAAQNwHX19feF/v6OVnFVYWDh48GD80dbWVrRxd3f3r776au7cuVwud9asWTt37lRVVZWMAb8UCyGkpKQktQuhUCj6qITS0lJ8oS81NXXs2LGzZ8/28PCQXKqoqIgEZmxsLNapjNikBmBiYiLWgpOTU25ubn5+Pp1O9/Pz27VrF4vFGjVqVFubWmw1xWbhFaTT6XIuLnsrmZqakgUtLCxKS0ubm5tDQkISExOtrKxERxIku759+/ayZcsOHTpUWFgoud0A6HSKOXt99OjR0aNHtbW1LSwsmpqatLW17927R+a2tLR4e3tzOJy0tLSO5dbz58/7+vriaR0dnZUrV7q6ut64cYPNZk+YMCE9PT09PT0pKenw4cPkeys5i81mv3nzBs9NSUk5f/48ab+wsHDevHl5eXl37969devWhQsXpIYhlm5k9C7GwcFh5MiReCBScikOh/P69Wtck0QoT2xSA5BMfCoqKi4uLhEREU5OTsOGDUtJSbl9+7aM9CqZVeWZ1VYd2VuJjEcjhF69emViYrJr166ampqMjIz4+PiRI0fK6HrkyJERERHTpk1bt27dO6MC4P0pJr2eOHGitra2trb2xYsX6urqtbW1zs7OAoEgMTGxrq7uwoULAoFg586dAoGAx+PxeLz2tu/m5paSknLw4MGamhoejxcXF5eWlubm5hYQEBAbG5ubm1tfX7906VLRS/OSswICAo4ePfrixYuKioqQkBCS0Xg8XnR0dGBgII/HY7PZqqqqDQ0NYgFIjVlG75IMDAzwgKzkUv7+/sePH3/x4kVDQ0NERIRYjm4rNh6PJ38AXl5ehw4dcnZ21tLSMjExiY2N9fT0lKzWgV3zzsVlB/n8+fPjx48LBIK9e/fS6XQ7O7uamho2m62mppaenn7s2DHJG1GIHj16IIQ2b94cGxv78OHD94kcAHl0o58VNDY2urq6ZmdnP3jwIDU1VV2E2IjeOzGZzLi4uDNnzhgbGxsbG2/fvj02NtbCwsLe3n7btm3e3t69juP51gAAIABJREFUe/euqqoSfd+q5Cx7e/tNmzaNHj26b9++1tbWixcvRgj5+fk5Ojr6+/vr6ekZGhr269fPwcFh5syZor3jOlwuVywqGb1LsrS0xMOOUgNbv369m5ubo6Ojm5ubrq6u6IILFiyQjA2H1KtXLzkD8PLyqqurc3Z2Rgi5urqam5uzWCyxOm2tppw6tpW8vb2joqLYbPaxY8fOnTunpKS0bNmyBw8eGBkZrVy5cv369cePH09NTZXRL4fDWb169cqVKzsWNgDyo7Xr3nUsKyuLw+EghPC/Mly6dIncy02j0YTUPJAQd0FR+93Q/fv3o6Ojt23bpqqqum7dusrKyr179yo6qA9YFxyl4NPUjc5egZzwtSBPT89BgwZlZGT88MMPio4IACCFYu4cAO9DVVVV9sACAKA7gLNXAACgBKRXAACgBKRXAACgRJeOvVL9zjh4Jx0AoPvouvRK9f0ucD8NAKBbgcEBAACgBKRXAACgBOWDA209tQQAAD5u1KbX8ePHw5AoAODTBIMDAABACUivAABACUivAABACUivAABACUivAABACUivAABACUivAABACUivAABACUivAABACUivAABACUivAABACUivAABACUivAABACUivAABACUivAABACUivAABACUivAABACUivAABACUivAABACUivAABACUivAABACUivAABACUivAABACUivAABACUivAABACUivAABACUivAABACUivAABACUivAABACUivAABACUivAABACcrTa2lpKa1tampqVlZWa9eubW5upjqSc+fOkX55PB7V3b0nye126NAhsTrffPONaAVtbW2FhAoAkErBZ6/Nzc15eXk//fSTp6dnfX29YoORbdGiRePHjx8/fvyff/6pkADu3bsnVpKcnKyQSAAA8ugugwN37949cOCAoqOQ5caNG5cvX758+XJ2drZCAhBLrzwe78mTJwqJBAAgjy5Nr99//33rf1paWiorK/fv30+j0fDc48ePU9p7QEAA6V1NTY3Svqjw7Nmz6upq8vHRo0ddMKICAOiwLk2vSkpK9P8oKyvr6enNnz/fw8MDz83Ly6O0dxqNRnpv14JFRUXJycmNjY34Y2FhYXJy8tu3bymIUToTExOEkFAoFB0NINN4bud6+/ZteXl5pzcLwCdF8YMDJDuoqKiIlvN4vK1bt3p7e7PZbBaLNWLEiD/++KO1tVWyherq6iVLlhgbG+vp6Y0fP/7ChQsVFRXkgs+rV69wNRmXti5evOjj42NlZaWhoWFhYTFq1KgjR460tLTguZGRkU5OTqSdo0ePOjk5Xbx4sV2hhoeH464NDQ0RQleuXHF0dDQ2NpZnEzk7O+MJ0fEBnF6VlZUdHBzaWvDOnTsBAQE2NjaamposFsve3j4kJISsiGRgAoHgp59+srKyMjIyMjAwGD58uKJGQgD4GDS236NHj4qLi4uLi4VyKCkpIX2FhoZKVnBzc8NznZ2dSeGzZ88GDBggGW2fPn2ePXsmunhubq6NjY1oHRqNtmbNGvIxPz8f1zx79iwpbGpqwoUCgeDzzz+XumVsbW2rqqqEQuHGjRsl50ZGRrYr1J07d+JyDodz9uxZJSUlhBCTyZRnu61bt47JZCKEvL29SQULCwuE0JAhQ2bNmoWraWlpibYQFhYmdb169Ojx6NEjqYF9+eWXYpV1dHSuX7/+jn0MAJBGkem1pqZGdOz1yJEjuLy1tZUkLAMDg5kzZ06ePFlTUxOXmJmZNTQ04JoCgcDe3l40F+A0JEp2et23b59oQvT393d2diYhTZs2jUTbr18/ybWQP1SSxXR1dfEJrPzpNTQ0dPz48XhZgUAgFArJ0MTXX38tNb3euXOHrAWTyXR3d7e0tCQNDh06lNQkgZH6xsbG6urqpLK5uXlzc7M8+xoAIKpLBwd+/PFH0fs0e/bsuWDBAqFQiBBavHjx3LlzcbUDBw6kp6cjhExMTJ49e/bnn3+ePXv28ePHPXv2RAjl5+eTnHj69OmHDx/i6c2bN1dWVpaVlZ08eVL+K1cJCQl4YsqUKc+fPz9//vzdu3fJHaZXrlzh8/kyFpc/VKKqqqq8vDw4OPjAgQPh4eFyxonHB6qqqrKyspDIwCsZNxBz8eJFvGHt7OwKCwtv3LiRm5u7fft2PPfx48eSl8WEQiGbzU5KSnr9+nV1dfX8+fNx+cuXL48cOSJnnAAAQvFjrwih0NDQPXv2kI/nz5/HE8HBwQwGA09bWVlNnToVT8fExOAJcrOBi4tLaGiokpISjUabMWPGsmXL5Oyay+XiiTt37vzxxx8FBQUIoenTp9+4cePGjRuXLl2SnV7lD1XUkSNHDhw4EBwcPGfOHDnjdHFxwRNJSUlIJL06OTlJre/g4PDTTz/99NNPv/zyC/nPhpyTNjc3kxUXtWPHjmHDhiGEVFVV9+zZY25ujsuvXbsmZ5wAAKJbpNcff/zx66+/Jh/xCRpCKCwsTPRsNzIyEpdnZmbiiWfPnuGJgIAA0QbJ38vvNG7cODxRXFy8ZMkSU1PTPn36LF++vKysbMiQIe7u7qqqqjIWlz9UQkVFJTAwUM7wCEdHR2VlZfTf1S2cXlksFh6BlTRlypQ1a9asXr1aW1t73759ixcvdnJyWrp0qexe/P39ybSysvKECRPw9PPnz9sbMACgS9Or6Kgln8/Py8sbM2YMnrVnzx58kZrP5xcVFcluh8vl8vl8Pp9PLoL36tVLtIKpqamcIa1atWrDhg16enqkJDc3d//+/VOnTjUyMtq7d6+MZeUPVbREX18fJ8p26dGjx8CBAxFC9+7dEwqF9+/fR22PDGCHDh0yNDR0cHBYtGjR3r17U1JS2srFmI6OjpaWlmgJ2apdeRcaAB+Ndn/PO4uSkpKFhcWmTZv++ecfXJKZmdm3b186nc7hcIqLixFCYWFhJP+Kwfeu6uvr49szxb7/eHF50Gi0jRs3hoaGJiUlxcXFxcXFPX78GI9a1tbWLlmyZOjQoUOGDGkrBvlDFe1RztjEuLi4PHz48OnTp6mpqVVVVUhmeo2MjAwODkYI6enpfffddx4eHv3798/KynJ0dGxrkerq6vr6enJdDolsRisrq47FDMCnTGHpFRO90E9GA/v27Yu/2HQ6ffjw4aRCfX19XV0dEklY1tbWOL1euXLlm2++ITXJkKhs9fX1+fn5eHr48OGurq5btmwpLS09evTod999hxASCoU3b95sK722K9T35+zsvHv3boFA8Pvvv5OStirv2LEDT3z77berV6/G03hkWYaLFy9Onz4dT/P5/MuXL+Ppvn37vk/kAHyaFDz22tTURKbJI13IeOiRI0fKysrw9Nu3bwcOHMjhcDgczqZNm3Dh2LFj8URCQsLu3bvx9KVLl7Zu3SpP7xUVFbb/IT8TYLPZX331FfkzmcViiS0l+ugZ+UN9fySZRkdHI5k/KMADL3g6JyeHRLVlyxbZXXz77bePHj1CCLW0tCxdupQsK/9YNgDg/6fYnxU8ffqUzN2+fTsubGpqIqOEbDY7MDBw0qRJurq6uITBYBQVFeGaNTU1BgYGpAUWi8XhcMRWUPZ9r7a2trhESUlpxIgR06dP9/PzE+2rrKwM13R1dcWFenp6CxYsSExMbFeoonfvd3i7ia6dvb09LpR63yubzSY1TUxMXF1dxcZVS0pKxAIjoxbm5uaiQwR+fn7yBAwAEKPgs1exa0p4Qk1NLTo6Gt8VVFpaGh0dHRsbi0cbjYyMbty4YWRkhGtqa2v/9ddfpJGysjKcleS/4Sk2NhbnLIFAcPv27VOnTl2+fBn3paOjc/jwYZK+ydAql8vdv38/vmlB/lA7hehogOzrWn5+fmT69evXd+7c4fP5K1asIIWlpaVii7BYrBkzZiCEXr58Sc7Qhw0bdvDgwfePHIBPkILTK4fDsbOzw9ORkZEZGRl42sHB4cmTJ99//72Hh4e+vj6LxXJxcfnll19ycnLI+SY2atSo1NTUefPm9e/fX1dX19PT8/Dhw/Lfrm9paZmTk7N7924PDw9LS0sNDQ0tLa2+ffsuXrw4KyuL3JmEEFq9evW3337bu3dvdXV1CwsLMmggf6jvj9z9it6VXnfs2DF06FA8bWFhMWPGjOTk5LCwsB49euDC77//XmwRGo127NixTZs2mZubq6mpmZmZrVmz5ubNm5J/EAAA5EFr/O9BUPLLysrCX7lu+8V78uQJztrKysp1dXUf4uMH359AILh8+XJ+fr7s213Dw8NXrVqFECJ3QQAAOoWC7xx4T9988018fDxCSE9P799//yUjhuTXXP379/80cytCSElJSfTsGwDQxT7s9PrZZ5+RGwamTp0aHBzMZDLPnDlDChctWqS46AAAn7QPO73Onz//1q1bp06dQgj9/ffff//9t+jcr776auHChQoKDQDwqfuw06uSktLJkye/+OKLgwcPZmZmFhYWqqiomJmZ9evXLyQkRMYvlAAAgGof56UtAABQuG7xxCwAAPj4QHoFAABKQHoFAABKQHoFAABKQHoFAABKQHoFAABKQHoFAABKQHoFAABKQHoFAABKUPuj2EuXLlHaPgDgfYwfP17RIXzMKH/mAOw/ALonGo0mFAoVHcXHDAYHAACAEpBeAQCAEl33QELyIlLQneG/FmFntcuHtdFgQKDLdOnzXmG/dnOilyJhZ8npw9pocLW5K8HgAADg/2Pv3sOaOvLGgU+432KAANGigqDlEmDlVsUiBCoqgiCKZcPTovWyXamXbqlQH92urrfFYl+ofYHWWmHrhRJQgrsivt4QWgxQrAo1YKWIvOUuQkQSczm/P+bZ8+YHSQhoEqLfzx99TuZMZubMTL4e5qQZoBEQXgEAQCMgvAIAgEZAeAUAAI2A8AoAABqhm/D6pz/9iUKh3Lp1C7+8du0ahUL55JNPGhsbKRTKX//619FvWbVq1ccffzyuWn744QcKhXL48GH5xIqKipCQEGtraxqNFhERUVtb+/xlKjO6zUNDQxQKhUKhhIWF4ZSTJ0/ilPT09HG1RI+QV40ZGRn5+vr+9NNP4ypExdzAJjBDNE0sFtva2lIolH/+85+jz0qlUgqFwmazx0wEeko3G3HHx8cfPXr0/Pnzf/jDHxBC5eXlCKHVq1c7ODjs3r07JCRk9FuuX7/+6NGj56z3f//3f6OioqysrNavX9/f319UVLRo0aLW1lYbG5vnLFkhFW2ura2VSqWGhoY8Hk8TVU9Czs7Oa9euJQiiqampoKDg/fffr6urU//tKuYG9kJmyItVXl7e39+PECosLExKStJ1c4C26ebuNTw83NbWtqysDL+8cOGCi4uLv79/d3f37t27r1y5gm8Sd+/eHRkZmZmZGRYW1tvbe+3atbi4OPn7x//93/+lUCh/+ctfEEJHjhxxdnY2Nzf39PQsLS1VWC+PxxsaGvrwww8PHz787bfffvbZZ56ens3NzQihurq6hQsXUqlUNze3I0eO4PzXr18PDAy0srKaO3fu5cuX5Yt69uzZvHnz6HT6r7/+ihD68ccfcc4FCxbgqCHf5hHNmD59+tDQUENDA0KopqZmxowZ5KnRV4Gvd+vWrcHBwVQqNSYm5unTp8qut7Ky0svLa9q0aZmZmRQKZfv27QrbNqJ7n2Mkx8HZ2flvf/vb7t27T58+PXv27JaWFpw+unkKL4ScGwihffv2TZ8+3dLS8s0338R/f4zo7UlyyadPnzY1NQ0LC7t48SKOs7glPj4+9vb2e/fuJXOOThzdYIUdNborlCUCHRgev5s3b3Z0dHR0dBBjKS0tJY8RQvKn3nvvPSMjo8ePH3d0dFAolLS0NIIgcMTZtWtXVVUVQmjKlCleXl7FxcWdnZ02Njbz58/v7u7GpzIyMgiCaG9vRwh9+OGHeJ0hLCzsyJEjM2fOtLOzIwhCPidWX1+PEGIwGLt27frXv/5FXkJfX5+tre1rr72WlZW1dOlShFBBQUF3d7eVlZWbm9vnn3/u5uY2ZcqUR48ekWVu2rTJyMjo8uXLBEE8evSIRqPNnTs3Ozv79ddff+211x4/fizfZrIBT548QQiFhoY6ODjk5OSIRCJTU9PVq1cjhP7xj3+ouApLS8stW7YEBwcjhP77v/9bYc7+/n4ajTZ9+vT9+/fPnj0bIfTxxx8rbNuI7h09XiMG6znhq2axWPhlU1PTlClTIiMjlXWdwgsh58alS5cQQqtXr87JyXF0dHR2diYIQr63x3XJz09Zpz19+tTKymr58uUnTpxACB0/fpwgiMePH1tbW0+bNm3//v1ubm4IoT/+8Y8KE0c0WOFFKewKhYmjWzu6weCF083iAEIoPj7++PHj//M//zM0NEQQBA4xI7BYLC6Xi48NDQ3NzMzs7e3xzeYINjY2RUVFfn5+3d3dhoaGvb29IpFodDZfX9+TJ0/+13/914EDB2QyGYVCCQ8PP3Xq1L///e9Hjx598cUXW7ZsSUxMdHBwOH78+JMnT548efL3v//97bffDgwM/P7773t6enA533//fW1t7d///vfw8HCEEJfLHRgY+OCDDyIjIwUCQVpa2vXr15cvX062eUQzKBTKggULbty44efnJxKJgoKCOByO6qtYt27dF198cefOHR8fn/v37y9fvnx0TtyMgwcPbtq0ydvbOyYmRlnbbG1tR3SvFuAVdnz8+uuvHz9+XFnzHj16NPpCSN3d3Qih3t5eOp1eUlIiEolkMhmDwSB7Oy8vbzJc8rlz5548ebJ69erly5ebmpp+//33a9eu5XK5jx8/3r9/f3Jy8ty5c6OionAnjE7EyAYrvCj879aIrlDYPwYG8BBbB3QWXhctWkSj0crKyp4+fYpXBkbnefPNN9UszcHB4caNG0lJSY6OjjKZTEXOxMTExMTEp0+f/vTTT1988UVRUVF6ejqNRkMIBQQEIITs7OxmzZrV1taGb41dXFwQQsHBwfjOEUfY2tpaCoVSUVGBn7S0tbUhhDZu3EjWwufzVf8SY1BQ0LfffhsQEPDaa6+RiwMqrsLJyQkhhGOETCZTmPPBgwcIIT8/P4TQ/PnzcaLCti1YsACNp3tfCLz2KpPJrly5UlVVVVxcnJycrLB5w8PDaNSFkFasWLFu3brTp09fvXrVyMho27ZtIy5kklxyQUEBQuj27dttbW0ODg6XLl169OhRa2sr+s+lBQYG4pwKEzGywQovavPmzaO7Ysz+AVqjs3/TTExMYmJiysrKLl68qPDWFSFkaGgo/5KQ++GMx48fo//cyCCEysvLMzIyjh492tzc7OHhoazSEydOeHh45OfnW1hYLFy4cNeuXQih/v7+6dOnI4Tw0kFfX19ra+uMGTOmTp2KEMJ/k1ZXV2/fvv3+/fu4nPj4+D//+c+XL1/GD+UcHBwQQnihQCQSdXZ2bt68Wb7Noy1YsKCpqen8+fNBQUHkPZ2aV6EsJ24GbjC+FtVtG9G9mobXXvfs2YMfo1+9elVZ8xReCOnRo0cfffRRd3d3UVGRt7f34cOHyXHBvT0ZLnlwcPD8+fMIoYyMjF27dj18+FAikZw9exb/KfPzzz+TF4gQUpg4osEKL0phV6joH6BlOrt7RQjFx8d/9913CCFl4VWelZVVS0tLXV2dk5MThUL59ttvEULkH3qNjY0IobKyssbGRvwMSmFcCwoKevjw4YcfflhZWTl16lT89hUrVixYsMDa2vof//gHhUI5f/68TCZbs2ZNaGioubl5enr60NDQkSNHuru7//rXv3Z2diKE5s+fn5CQ8O2336alpUVERERFRZmbm//jH//o7e39+uuvr1+/fvv2bXd3d7LN+L5YXkBAgLGx8YULFw4dOkQmqnkVynJGRUWZmJjs27evv78f/+mNEFLYtjF7W6OsrKwQQvgPW4XNU3ghpO+++27Hjh0pKSlz5841NjY2MTGhUqlIboZMhks+e/asSCT69ttv33vvPYTQwMCAnZ1dYWFhTk6OoaHh/v37nzx5gic/QmjJkiWjE0dQeFElJSWju+Lbb79V2D9A+3S5IrNkyRIqlTpr1iyFKwMj/OUvfxEKhUeOHHF0dDxw4IBQKPzuu+/IL7usWrWKRqMVFRU1NDS8/fbbCKGKiorRhbi6upaXl/v5+Z09ezYrK8vU1PTkyZMxMTF2dnbl5eVOTk5paWlNTU1ZWVmJiYmOjo5cLtfMzCw1NdXS0pLL5U6ZMoUsavr06Rs2bLh169bJkydnzJhRUlLS1dX13nvv9ff3//vf/3Z3d5dv8+iWmJmZ+fn5EQQRFBREJqp5Fcpyzpgx49SpUwYGBunp6eS/WMrapkM0Gs3S0vLHH38cGhpS2DyFF0L6y1/+8uc///nkyZMbN24cHh4+ffo0vrMje3syXDJeGcCPSfElL1iw4MqVK1OmTDl48GB7e/vBgwejo6PxWRcXl9GJIyi8KIVdoax/gA7o6psDL1xvb297e7tGq9AC9a9idM6enp4bN250dXURBIG/uJOenj6u2jX0zYHxev4L0aYJdFp7e7tAIFAn8YWDbw5oky4XB14sOp2u6ya8AOpfxeicv/76a1BQUERExJEjR7KysigUSmho6ItuoDa8NBeijKOjo5qJQK/B1zVeHvPnzz98+HBzc/Mf/vCH6urqr776at68ebpu1ES8NBcCXnEvz90rQAh99NFHH330ka5b8QK8NBcCXmVw9woAABoB4RUAADRCq4sDsI2aHoHBmgDoNCBPe+GVmPSbaAISDNYEQKeBEWBxAAAANEJ7d6/k/1kPJjNC7ocdgJr0q9PgLltrtLr2CuM6yckvHcJgqUm/Og1Wh7UJFgcAAEAjILwCAIBGQHgFAACNgPAKAAAaAeEVAAA0Qjfhlc1mp6amyqf4+/vn5+cjhBobGyMjI+3s7BgMRlxcHLlds0I1NTU+Pj4MBmPDhg0SiUSzjX6FKRyUNWvWGBsbGxsbUygUQ0NDfMzj8ch3zZo1S34rMGX5h4aGKBTKwMAA+cbDhw+Tv6I9rvkwqYyenFwu18bGBm94gRBqaWmhUqk3btxQmBm8BHQWXgsLC8mXbW1tDQ0NsbGxMpksKioqIiLi3r17bW1tAQEBeNt6hSQSSWJi4u7du1tbW3t7ew8cOKCVtr9ylA1Kfn6+WCwWi8XBwcGnTp3Cx+QvB1ZXVxMEYWBggDeUHjP/uKqe/BROztjY2MjIyK1bt+I877///gcffDB//nyYyS8r3YTXpUuXDg4O1tTU4Jdnz55dvHixtbV1R0dHW1vbxo0bbWxsTE1Nd+zY8frrr+NNmUa7cuWKubn5ypUrzc3NP/74Y7z9BnjhxjUopNOnT7/77rsJCQnff/+9lqueDJRNziNHjlRUVJw7d+6f//zn77//vmfPHhWZgb7TTXg1MTFZtWoVeQN79uxZvGGUo6Mjk8mMiooqLi4eGBgwMDDgcDh457vR+Hw+k8nEx0wms7m5efJ/qVsfjWtQMKlUyuFwkpKS2Gx2UVGRVCrVWtWThLLJSafTs7Ozk5OTU1NT8/LyTE1NVWQG+k5nj7bYbDaHwyEIoqenp7a2NiYmBqdXV1dHRkZmZGQwGIyQkBDyT8vRhoeHyS0wqVSqVCoVCATaaPqrR/1Bwa5everi4jJnzhx/f38ajXbt2jWtVT1JqJicK1asIAhi9uzZgYGBY2YGek1n4ZXFYonFYh6PV1paGhERQaPRcLqVldWOHTuqq6u7urpiY2PDwsJaW1sVlmBra0v+nSgQCIyMjGDDYQ1Rf1Cw06dP19fX29vb29vbP3jw4HnWB8Zb9SShYnKmp6c7Ozu3t7dzOJwxMwO9prPwamBgkJCQUFhYSK4MIITOnDkTFRWFj2k0WkpKSnBwsLJ7HxcXl6amJnzM5/OdnZ315Tc19Mu4BgUh9OzZszNnzty9e7enp6enp6e6uvrMmTMqnoabmZmZmZn19fWRKX19fXijxvFWPXkom5x37txJT08/duxYbm5ucnJyd3e3isxA3+nye69sNrugoKCqqmr58uU4JSQkpLa29ujRo4ODgyKRqKys7Pbt2yEhIQrfzmKxuru7r169KpVKs7Ky3nnnHS22/RUyrkFBCJWVlc2cOdPZ2Rm/9PX1NTU1vXTpkrL8hoaG0dHR27dvv3nzplgsrqio+Oabb1atWjWBqicPhZNTIpGsXbt2+/btbm5uS5cuXbx48aZNm5RlBi+D4fG7efNmR0dHR0fHmNt8j7mpuqura1xcnHxKXV1dREQElUq1s7NjsVjXr19XUX5dXZ2vr+/MmTPXrl0rEonGbA9QjRyvEYOlelCCg4MLCgrIl3/84x//+te/ymfYuHHj2rVrleUnCKK/v3/Tpk3Tp0+3tLScO3fu999/r2bVk4GKThsxOffs2ePl5fXs2TOcobu7m06nnzp1SmFmTbd2dIPBC0cZHh4eb0Tm8/lTp05FCOH/qnDu3DnyzpRCoRDwPHRyI8cLBkt9+tVp8JHUJj3YiJvP52dlZY1ItLS0zMjI0El7AABAHXoQXt3d3XNycnTdCgAAGB/4SRcAANAICK8AAKAREF4BAEAjtLr2Ctuo6REYrAmATgPytBde4SsgegQGawKg08AIsDgAAAAaob27V/jfqPUCvgWDwRoX/eo0uMvWGq2uvcK4TnLyS4cwWGrSr06D1WFtgsUBAADQCAivAACgERBeAQBAIyC8AgCARkB4BQAAjdBNeGWz2ampqfIp/v7++fn5CKHGxsbIyEg7OzsGgxEXF9fS0qKinJqaGh8fHwaDsWHDBhXbjYDnl5GR8eabb1KpVA8Pj6NHj8qfKigoCA4OptFoHh4eW7duxdvwDQ0NUSiUQ4cOkdkuX74cFBSEEFqzZo2xsbGxsTGFQjE0NMTHPB4Pv8XIyMjY2NjIyIhOpyclJcn/HrGKigYGBrTUEWobPTm5XK6NjU1nZyfO0NJX2IrpAAAgAElEQVTSQqVSb9y4oTAzeBnoZLcCLpfr5OREvnzw4IGJiUl/f79UKnVycjp8+PCjR4+EQuG+fft8fHyUFS4Wi11dXYuLi58+fRobG7tnzx71f0UcKKTsh/e3bdu2YMGC27dvC4XCioqKKVOmnDlzBp/au3evq6vrxYsXnzx50tTU9O6777q5uQ0PD+O9+aytrX/77Tec89KlS/Pnz5cvdsS2Bfgtjx8/xi9/+eUXJpN56NAhdSoi36V9CjtN2eRks9mrV6/Gx4sWLUpLS1ORWaOtJWC3As3TTXgViUQ2NjY8Hg+/zMzMjI6OJgiivb2dQqEMDg7idKlUGh8fLxAIFBZeXl7u5eWFjysrKz08PCbUA+D/KIwUDx48oFKpnZ2dZEpmZuaWLVsIgmhtbbWysuLz+fKFhISE7N+/H0e9Xbt2LVu2DKePN7wSBJGcnLx582Z1Kpps4VXZ5Ozt7XVwcCgtLc3Pz/f09BQKhSoya7S1BIRXzdPN4oCJicmqVasKCwvxS3KzWEdHRyaTGRUVVVxcPDAwYGBgwOFwrKysFBbC5/OZTCY+ZjKZzc3NxKT/Urc+KisrCwoKYjAYZMq2bdu++OILhND169cDAgLc3Nzk82/YsIHcuHDnzp1NTU1FRUUTqLehoaG8vDw6OlqdiiYbZZOTTqdnZ2cnJyenpqbm5eWZmpqqyAz0nc4ebbHZbA6HQxBET09PbW1tTEwMTq+uro6MjMzIyGAwGCEhIVVVVcpKGB4eJreDp1KpUqkUL8aBF6ujo2PatGkKT7W2ts6cOXNEopOTE7libmZmlpOTs23btsHBQTWrYzAY5ubmpqam3t7eoaGhS5YsUaeiyUbF5FyxYgVBELNnzw4MDBwzM9BrOguvLBZLLBbzeLzS0tKIiAgajYbTraysduzYUV1d3dXVFRsbGxYW1traqrAEW1tb/IchQkggEBgZGZFzFLxA9vb2HR0d8im9vb3ffPMNQsjJyam9vX1E/vb29hkzZpAvIyIiWCzWzp071ayuq6treHhYJBLV1taWlJRcu3ZNzYomFRWTMz093dnZub29ncPhjJkZ6DWdhVcDA4OEhITCwkJyZQAhdObMmaioKHxMo9FSUlKCg4PxB2w0FxeXpqYmfMzn852dnfXlNzX0y+LFi3/44QfyeTdCqKioCIfXhQsX1tTU/Prrr/L5jx8/HhERIZ/y+eefnz59uqamZlz1BgQEhIeH37p1S/2KJg9lk/POnTvp6enHjh3Lzc1NTk7u7u5WkRnoO11+75XNZhcUFFRVVZE7A4eEhNTW1h49enRwcFAkEpWVld2+fTskJETh21ksVnd399WrV6VSaVZW1jvvvKPFtr9C5syZk5iYuGLFijt37kgkkh9//PHvf//71q1bEUKzZs1KSUmJjo6uqKgQiUStra0bNmx4+PDh9u3b5UtgMBj79+/ft2/feKu2t7fHt3VqVjR5KJycEolk7dq127dvd3NzW7p06eLFizdt2qQsM3gZ6OSbAyRXV9e4uDj5lLq6uoiICCqVamdnx2Kxrl+/rqL8uro6X1/fmTNnrl27ViQSqfMsD6ig7ItZMpls//79gYGBVlZWnp6eR48elT974sSJoKCgKVOmuLu7b9myBX/xA4dF+RKCgoLG+82BjIwMX19fdSoyNTU1+4/jx48/d0+Mg7JOGz059+zZ4+Xl9ezZM5yhu7ubTqefOnVKYWZNt3Z0g8ELRxmW+9q2mvh8/tSpUxFC+L8qnDt3jrwzpVAoBDwPndzI8YLBUp9+dRp8JLVJq7/3OjF8Pj8rK2tEoqWlZUZGhk7aAwAA6tCD8Oru7p6Tk6PrVgAAwPjAT7oAAIBGQHgFAACNgPAKAAAaodW1V9hGTY/AYE0AdBqQp73wCl8B0SMwWBMAnQZGgMUBAADQCO3dvcL/Rq0X8C0YDNa46FenwV221mh17RXGdZKTXzqEwVKTfnUarA5rEywOAACARkB4BQAAjYDwCgAAGgHhFQAANALCKwAAaIRuwiubzU5NTZVP8ff3z8/PRwg1NjZGRkba2dkxGIy4uDjVe9XV1NT4+PgwGIwNGzZIJBLNNvoVpnBQoqOjd+zYgTO0tLRQKBRy69+SkhIHBweFj9HXrFljbGxsbGxMoVAMDQ3xMY/HGxoaolAoRkZGxsbGRkZGdDo9KSmJ/DFiX19fLpeLj3Nzc9966y0ajTZz5szk5OS+vj6ycIWn5EsmSaVS1TU+v9GTk8vl2tjYkNvqtLS0UKnUGzduyPczuekceAnoLLySH0WEUFtbW0NDQ2xsrEwmi4qKioiIuHfvXltbW0BAQFxcnLJCJBJJYmLi7t27W1tbe3t7Dxw4oJW2v3KUDQqLxfrxxx9xnsuXL1tYWFy8eBG/5PF4ISEhCr8Hmp+fLxaLxWJxcHDwqVOn8PG8efPw2b6+PrFYLJFIqqqq6uvrv/zyyxFv//jjj7Ozs//2t791dHQUFRUNDQ1FRkbiOK7iFFkyydDQUM0aJ0bh5IyNjY2MjMT76CCE3n///Q8++GD+/Pn4pVQqfe+99549e/ZCGgAmBZ1sBiMSiWxsbHg8Hn6ZmZkZHR1NEER7ezuFQsGbfBAEIZVK4+PjBQKBwsLLy8u9vLzwcWVlpYeHh1r7MwDlFO5romxQamtrzc3N8dYmb7/99s6dO2fMmIHzsFisL774QnVdY+4Ek5ycvHnzZnw8d+7ckpKS+/fvU6nUtrY2Mo9EIlm3bl1LS4uKU6NLVqdG9SnsNGWTs7e318HBobS0ND8/39PTUygUkm85ePBgYmKimZnZeBswsdYSsBmM5unm7tXExGTVqlXkDSy5WayjoyOTyYyKiiouLh4YGDAwMOBwOFZWVgoL4fP5TCYTHzOZzObmZmLSf6lbHykbFF9fX2Nj41u3bhEEceXKlc2bN8tkMj6fL5VKa2trQ0NDn6fShoaG8vLy6Oho+cQLFy4sWLBAfvNtQ0PDY8eOzZo1S8Wp56lxwpRNTjqdnp2dnZycnJqampeXZ2pqivPcvXv3xIkTe/fufSG1g0lCZ4+22Gw2h8MhCKKnp6e2tjYmJganV1dXR0ZGZmRkMBiMkJCQqqoqZSUMDw+T28FTqVSpVCoQCLTR9FePwkExNDRcuHBhdXX1zz//PHXq1KlTpy5evPjixYsNDQ2mpqbe3t4TqIjBYJibm+O3h4aGLlmyRP5sX18fub1bfX29+X9kZmaqOIUT6XQ6ufA6d+5cNWucMBWTc8WKFQRBzJ49OzAwEKfIZLL169dnZ2dbWlq+kNrBJKGz8MpiscRiMY/HKy0tjYiIIFf0raysduzYUV1d3dXVFRsbGxYW1traqrAEW1tb/PcdQkggEBgZGZETGrxYygYFL79eunRp0aJFCCEcXnk83sKFCyf2P+B3dXUNDw+LRKLa2tqSkpJr167Jn3V1db137x4+9vPzw0tV69atk0qlKk7hRPm1159//lnNGidMxeRMT093dnZub2/ncDg4JTMz09/fX9mG80B/6Sy8GhgYJCQkFBYWkisDCKEzZ85ERUXhYxqNlpKSEhwcrGzGu7i4NDU14WM+n+/s7Kwvv6mhX1QMCovFqq6uvnz58ltvvYUQWrRo0fXr1ysqKp5zZQAhFBAQEB4efuvWLfnEhQsX1tfXNzY2kikSieTq1auqTz1PjROmbHLeuXMnPT392LFjubm5ycnJ3d3dCKGbN2/m5eVRqVQXFxehUEilUqurq19IM4Bu6fJ7r2w2u6CgoKqqitwZOCQkpLa29ujRo4ODgyKRqKys7Pbt28r+VWexWN3d3VevXpVKpVlZWe+8844W2/4KUTEovr6+/f39lZWVOJ7a2dm9/vrrRUVFzx9eEUL29vbkDSA2Y8aMtLS0yMjICxcuDA0NPXjwICkpqa2tTfWp56lxwhROTolEsnbt2u3bt7u5uS1dunTx4sWbNm1CCH333XcCgUAgELS0tJiZmQkEgqCgoBfSDKBbugyvb7zxhoWFRXh4OPl3k52dXVlZGYfDmT59+vTp0w8dOlRSUuLi4qLw7YaGhlwuNyUlxcXFxdzcnPwOJnixVAwKXn6dO3cuOYKLFy82NzeXX9ycMFdX1+Li4hGJu3fv/vTTT3ft2kWn093d3WfNmnXkyJExT6H/rLGSampq1KxxYhROzgMHDjx79iwtLQ3nyczMrKioOH369AupEUxClAl8j5rP5+PHCOTDBGXOnTtH3plSKBR4sj/JkeM1+QdLJpPJZDIjIwW/qKnilCboUach+Ehql1Z/73Vi+Hx+VlbWiERLS8uMjAydtAeoQ9OjZmBgYGCg+G8vFacA0CY9CK/u7u45OTm6bgUYHxg1AOAfeQAA0AgIrwAAoBEQXgEAQCO0uvYK26jpERisCYBOA/K0F17hKyB6BAZrAqDTwAiwOAAAABqhvbtX+EEAvYBvwWCwxkW/Og3usrVGq2uvMK6TnPzSIQyWmvSr02B1WJtgcQAAADQCwisAAGgEhFcAANAICK8AAKAREF4BAEAjdBNe2Wx2amqqfIq/v39+fj5CqLGxMTIy0s7OjsFgxMXFtbS0qCinpqbGx8eHwWBs2LBBIpFottGvqjVr1uAdACkUiqGhIT7m8XhDQ0MUCsXIyMjY2NjIyIhOpyclJZE/H+zr68vlcvFxbm7uW2+9RaPRZs6cmZyc3NfXRxau8JR8ySSpVKq6xsk2GUa3h8vl2tjYdHZ24gwtLS1UKvXGjRsIoZKSkjlz5kyZMiU0NJTc0mayXREYt+Hxu3nzZkdHR0dHx5jbfCvbVJ3L5To5OZEvHzx4YGJi0t/fL5VKnZycDh8+/OjRI6FQuG/fPh8fH2WFi8Vi/PPyT58+jY2N3bNnj1pbjwPlyPGSHyxScHBwQUEB+RLvm/L48WP88pdffmEymYcOHcIv586dW1JSQhBESkqKt7d3RUXF0NAQj8dLSkoKDAyUyWQqTo0oWZ0adTgZFHaasvaw2ezVq1fj40WLFqWlpREE0dXVRaPRrl69KhAIPv74Y3d3d81dkbKPJNAE3YRXkUhkY2PD4/Hwy8zMzOjoaIIg2tvbKRTK4OAgTpdKpfHx8QKBQGHh5eXlXl5e+LiystLDw2NCPQD+z/OEV4IgkpOTN2/ejI9xeL1//z6VSm1rayPzSCSSdevWtbS0qDilZniVr1GHk0FhpylrT29vr4ODQ2lpaX5+vqenp1AoJAjiX//617x583CGx48fUyiU/v5+DV0RhFdt0s3igImJyapVqwoLC/FLcrNYR0dHJpMZFRVVXFw8MDBgYGDA4XCsrKwUFsLn85lMJj5mMpnNzc3EpP9S90usoaGhvLw8OjpaPvHChQsLFiyYMWMGmWJoaHjs2LFZs2apODWBGifbZFDWHjqdnp2dnZycnJqampeXZ2pqihBisVjnz5/Hmevr62fNmmVtbT3ZrghMgM4ebbHZbA6HQxBET09PbW1tTEwMTq+uro6MjMzIyGAwGCEhIVVVVcpKGB4eJnfQo1KpUqlUIBBoo+lADt4i0NTU1NvbOzQ0dMmSJfJn+/r6yA3Z6uvryZ0EMzMzVZzCiXQ6nVx4ld8bUWGNk20yqGjPihUrCIKYPXt2YGAgTrG0tLS1tUUIcbncxMREvF/OZLsiMAE6C68sFkssFvN4vNLS0oiICBqNhtOtrKx27NhRXV3d1dUVGxsbFhbW2tqqsARbW1ty22SBQGBkZEROR6A1XV1dw8PDIpGotra2pKTk2rVr8mddXV3v3buHj/38/PDi0rp166RSqYpTOLGvr0/8Hz///LPqGifbZFDRnvT0dGdn5/b2dg6HQ+bv7+9fvXr1J598UlRUFBcXp7oEoC90Fl4NDAwSEhIKCwvJlQGE0JkzZ6KiovAxjUZLSUkJDg4e8Yklubi4NDU14WM+n+/s7Kwvv6nxUgoICAgPD79165Z84sKFC+vr68lH4QghiURy9epV1acmUONkmwzK2nPnzp309PRjx47l5uYmJyd3d3cjhMRi8dKlS6dOnXr79u0333xTdQlAj+jye69sNrugoKCqqorcGTgkJKS2tvbo0aODg4MikaisrOz27dshISEK385isbq7u69evSqVSrOyst555x0tth0oYG9vT95wYTNmzEhLS4uMjLxw4cLQ0NCDBw+SkpLa2tpUn5pAjZNtMihsj0QiWbt27fbt293c3JYuXbp48eJNmzYhhLhcrkwmy8jIkMlkIpFIJBJNwisCE6DL8PrGG29YWFiEh4eTf/XY2dmVlZVxOJzp06dPnz790KFDJSUlLi4uCt9uaGjI5XJTUlJcXFzMzc137NihxbYDBfAXiUYk7t69+9NPP921axedTnd3d581a9aRI0fGPIX+s8ZKqqmpUVHjZJsMCttz4MCBZ8+epaWl4TyZmZkVFRWnT5/+6aef6urqzOQMDAxMtisCE0Ahv5WtPj6fjx9KkI8mlDl37hx5Z0qhUODR5yRHjpcmBksmk8lkMiMjBb+BqeLU5KfRTnvh4COpTXowofl8flZW1ohES0tL/IAV6AsDAwMDA8V/Lak4BYD+0oPw6u7unpOTo+tWAADA+MAtAwAAaASEVwAA0AgIrwAAoBFaXXuFbdT0CAzWBECnAXnaC6/wFRA9AoM1AdBpYARYHAAAAI3Q3t0r/B/TegHfgsFgjYt+dRrcZWuNVtdeYVwnOfmlQxgsNelXp8HqsDbB4gAAAGgEhFcAANAICK8AAKAREF4BAEAjILwCAIBG6Ca8stns1NRU+RR/f//8/HyEUGNjY2RkpJ2dHYPBiIuLa2lpUVFOTU2Nj48Pg8HYsGGDRCLRbKNfVWvWrMH7CVIoFENDQ3zM4/GGhoYoFIqRkZGxsbGRkRGdTk9KSiJ/PtjX15fL5eLj3Nzct956i0ajzZw5Mzk5ua+vjyxc4Sn5kklSqVR1jVhMTAy5h4pujZ6cXC7Xxsams7MTZ2hpaaFSqTdu3EAIlZSUzJkzZ8qUKaGhofIb5CCEGhsbyZ3ogJ4ZHr+bN292dHR0dHSMuc23sk3VuVyuk5MT+fLBgwcmJib9/f1SqdTJyenw4cOPHj0SCoX79u3z8fFRVrhYLMY/Vv/06dPY2Ng9e/aos/M4UIEcL/nBIgUHBxcUFJAv8S4sjx8/xi9/+eUXJpN56NAh/HLu3LklJSUEQaSkpHh7e1dUVAwNDfF4vKSkpMDAQJlMpuLUiJLVrPHx48d5eXmGhoZ8Pv9FdYg6FHaassnJZrNXr16NjxctWpSWlkYQRFdXF41Gu3r1qkAg+Pjjj93d3clyJBJJYGCgmZnZC28toWSUwQukm/AqEolsbGx4PB5+mZmZGR0dTRBEe3s7hUIZHBzE6VKpND4+XiAQKCy8vLzcy8sLH1dWVnp4eEyoB8D/eZ7wShBEcnLy5s2b8TEOr/fv36dSqW1tbWQeiUSybt26lpYWFafUDK8javzTn/4UHBxsbGw8GcKrssnZ29vr4OBQWlqan5/v6ekpFAoJgvjXv/41b948nOHx48cUCqW/vx+/PHjwYGJiIoRXPaWbxQETE5NVq1YVFhbil+RmsY6OjkwmMyoqqri4eGBgwMDAgMPhWFlZKSyEz+czmUx8zGQym5ubiUn/pe6XWENDQ3l5eXR0tHzihQsXFixYMGPGDDLF0NDw2LFjs2bNUnFqYjV+9dVXlZWVdDr9uS/lBVA2Oel0enZ2dnJycmpqal5enqmpKUKIxWKdP38eZ66vr581a5a1tTVC6O7duydOnNi7d6+OLgI8L5092mKz2RwOhyCInp6e2tramJgYnF5dXR0ZGZmRkcFgMEJCQqqqqpSVMDw8TO6BSKVSpVKpQCDQRtOBHLzhoKmpqbe3d2ho6JIlS+TP9vX1kRuy1dfXk/sSZmZmqjiFE+l0OrnwOnfuXDVrnCRUTM4VK1YQBDF79uzAwECcYmlpaWtrixDicrmJiYl4lyOZTLZ+/frs7GxLS0tdXAF4AXQWXlksllgs5vF4paWlERER5OK9lZXVjh07qquru7q6YmNjw8LCWltbFZZga2tLbvssEAiMjIzICQ20pqura3h4WCQS1dbWlpSUXLt2Tf6sq6vrvXv38LGfnx9eXFq3bp1UKlVxCif29fWJ/+Pnn39Ws8ZJQsXkTE9Pd3Z2bm9v53A4ZP7+/v7Vq1d/8sknRUVFcXFxCKHMzEx/f39lu9ADvaCz8GpgYJCQkFBYWEiuDCCEzpw5ExUVhY9pNFpKSkpwcLCyz4+Liwv5jJjP5zs7O+vLb2q8lAICAsLDw2/duiWfuHDhwvr6evlH4RKJ5OrVq6pPPU+Nk4SyyXnnzp309PRjx47l5uYmJyd3d3cjhMRi8dKlS6dOnXr79u0333wTv+vmzZt5eXlUKtXFxUUoFFKp1Orqal1dDpgYXX7vlc1mFxQUVFVVkTsDh4SE1NbWHj16dHBwUCQSlZWV3b59W9k/4CwWq7u7++rVq1KpNCsr65133tFi24EC9vb25C0bNmPGjLS0tMjIyAsXLgwNDT148CApKamtrU31qeepcZJQODklEsnatWu3b9/u5ua2dOnSxYsXb9q0CSHE5XJlMllGRoZMJhOJRCKRCCH03XffCQQCgUDQ0tJiZmYmEAiCgoJ0fFVgnHQZXt944w0LC4vw8HDy7yY7O7uysjIOhzN9+vTp06cfOnSopKTExcVF4dsNDQ25XG5KSoqLi4u5ufmOHTu02HagAP4q0ojE3bt3f/rpp7t27aLT6e7u7rNmzTpy5MiYp9B/1lhJNTU1atY4GSicnAcOHHj27FlaWhrOk5mZWVFRcfr06Z9++qmurs5MzsDAgE6bD14MyohvZauDz+fjhxLkowllzp07R96ZUigUeLI/yZHjpYnBkslkMpnMyEjBb2CqODX5abTTXjj4SGqTHkxoPp+flZU1ItHS0hI/YAX6wsDAwMBA8V9LKk4BoL/0ILy6u7vn5OTouhUAADA+cMsAAAAaAeEVAAA0AsIrAABohFbXXmEbNT0CgzUB0GlAnvbCK3wFRI/AYE0AdBoYARYHAABAI7R39wo/CKAX8C0YDNa46FenwV221mh17RXGdZKTXzqEwVKTfnUarA5rEywOAACARkB4BQAAjYDwCgAAGgHhFQAANALCKwAAaIRuwiubzU5NTZVP8ff3z8/PRwg1NjZGRkba2dkxGIy4uLiWlhYV5dTU1Pj4+DAYjA0bNkgkEs02+lU1NDREoVCMjIyMjY2NjIzodHpSUhL+mWB8KiEhQT5/WloahUKR3+VFWWlmZmZ+fn6VlZX41LiG3tfXl8vl4tIOHTpEpl++fBn/qr98RVQqNSwsDG/YJZ9OkkqlXC7Xxsams7MTl9PS0kKlUm/cuIEmOs1Gv0tFFWQPkJvOTbheMHnoLLySu3AjhNra2hoaGmJjY2UyWVRUVERExL1799ra2gICAvC2bgpJJJLExMTdu3e3trb29vYeOHBAK21/ReGNBSUSSVVVVX19/ZdffkmeqqiokP9R9rNnz1pYWKhTWmdnJ5vNTkhIIAhiXEM/wsGDB5Xtd4krevjw4apVq0JDQx8+fCifTjI0NIyNjY2MjNy6dSvO8P7773/wwQfz58+f2DRT+C5lVeCXUqn0vffee/bsmYoSgJ4ZHr+bN292dHR0dHQQYyktLSWPEULksUgksrGx4fF4+GVmZmZ0dDRBEO3t7RQKZXBwEKdLpdL4+HiBQKCw8PLyci8vL3xcWVnp4eExZnuAauR4yQ8W3szq8ePHZEpycvLmzZvJU2+//XZxcTE+devWrTfeeMPZ2bmhoUFhFSNK6+/vNzAwGBoaGtfQEwQxd+7ckpISXNquXbuWLVuG0y9dujR//nyFzV6zZs2HH344Op3U29vr4OBQWlqan5/v6ekpFAoJNaaZwk5T9i6FVWAHDx5MTEw0MzNTXcJzUvaRBJqgm7tXExOTVatWkTew5Gaxjo6OTCYzKiqquLh4YGDAwMCAw+FYWVkpLITP5zOZTHzMZDKbm5uJSf+l7pdAQ0NDeXl5dHQ0mbJ69WpyT+ni4uL4+Hg1i+rr68vNzV28eLGFhcW4hn6EnTt3NjU1FRUVqc62ZMmS+vp6FRnodHp2dnZycnJqampeXp6pqSma6DRT9i6FVSCE7t69e+LEib17945ZAtAjOnu0xWazORwOQRA9PT21tbUxMTE4vbq6OjIyMiMjg8FghISEVFVVKStheHiY3AORSqVKpVKBQKCNpr+S8MaCpqam3t7eoaGhS5YsIU8tW7bsypUrQqEQIVRcXLxy5coxS6PT6cbGxgwGY9euXeQqvPpDP4KZmVlOTs62bdsGBwdVZHNwcPj999/lG4DNnTuXzLNixQqCIGbPnh0YGIhTJjbNVLxrdBUymWz9+vXZ2dmWlpbqlAD0hc7CK4vFEovFPB6vtLQ0IiKCXNG3srLasWNHdXV1V1dXbGxsWFiYsmU1W1tbchNmgUBgZGRETkfwwnV1dQ0PD4tEotra2pKSkmvXrpGnLCwsQkJCLly40NzcbGxs7OrqOmZp5NLn5cuXV6xYgZ+DqT/0o0VERLBYrJ07d6rI093d/dprr41ogFgsxo+8sPT0dGdn5/b2dvJ+fGLTTMW7RleRmZnp7+8/YsN5mN4vAZ2FVwMDg4SEhMLCQnJlACF05syZqKgofEyj0VJSUoKDg+U/yfJcXFyamprwMZ/Pd3Z21pff1NBrAQEB4eHht27dkk+Mj4/ncDjjWhlACFEolNDQ0Hnz5lVWVo5r6BX6/PPPT58+rXC/buzixYt+fn4qSrhz5056evqxY8dyc3OTk5O7u7vRRKeZsncprOLmzZt5eXlUKtXFxUUoFFKp1OrqapjeLwOdPNrCeDzetGnTaDQa+UCjp6fH3t7+66+/HhgYEAqF58+ft7W1vX//vsLCJRKJo6PjlStXJBJJQkLC7t27x73yDNjTrs4AACAASURBVP5/aj7a2rRp0759+8hTBEEIBAIHBwdvb++7d+8SBKH+o627d+9aW1tXVVWNa+iJ///RFpmYm5trYWEx+tGWQCDIycmZMmVKW1ubskdbYrHYz89v7969+GViYuLKlSsJNaaZwk5T+C5lVZA6OzvJR1samt7waEubdBleCYJwdXWNi4uTT6mrq4uIiKBSqXZ2diwW6/r16yrKr6ur8/X1nTlz5tq1a0UikdpXDRRTM7xmZGT4+voScuGVIIi4uDhPT098PGZ4NTU1NTMzMzU1nTZt2meffYZPjWvoFYZXmUwWFBQkH15xRVQqlcVi1dfXj0gn8Xi8PXv2eHl5PXv2DBfV3d1Np9NPnTpFjDXNFHaawnepqAKTD69j1jsxEF61iTIs941FNfH5/KlTpyKE8H9VOHfu3PLly/ExhUIh4NHn5EaOFwyW+vSr0+AjqU1a/b3XieHz+VlZWSMSLS0tMzIydNIeoI4XMmow9ECv6UF4dXd3z8nJ0XUrwPi8kFGDoQd6DX7SBQAANALCKwAAaASEVwAA0Aitrr3CNmp6BAZrAqDTgDzthVf4CogegcGaAOg0MAIsDgAAgEZo7+4V/o9pvYBvwWCwxkW/Og3usrVGq2uvMK6TnPzSIQyWmvSr02B1WJtgcQAAADQCwisAAGgEhFcAANAICK8AAKAREF4BAEAjdBNe2Ww2uYEd5u/vn5+fjxBqbGyMjIy0s7NjMBhxcXEtLS0qyqmpqfHx8WEwGBs2bJBIJJpt9KtqaGiIQqEYGRkZGxsbGRnR6fSkpCT8M8H4VEJCgnz+tLQ0CoWCt89SJiMj480336RSqR4eHkePHpU/VVBQEBwcTKPRPDw8tm7divfvwxUdOnSIzHb58uWgoCCE0Jo1a/COhBQKxdDQEB/zeDwVzR6zooGBgRENnsBMG/0WLpdrY2PT2dmJM7S0tFCp1Bs3bpBvaWxsJDedU50I9INOdivgcrlOTk7kywcPHpiYmPT390ulUicnp8OHDz969EgoFO7bt8/Hx0dZ4WKx2NXVtbi4+OnTp7GxsXv27FH/V8SBQursVvDLL78wmcxDhw6RpxgMxtOnT8n8c+bMsbCwULZbAUEQ27ZtW7Bgwe3bt4VCYUVFxZQpU86cOYNP7d2719XV9eLFi0+ePGlqanr33Xfd3NyGh4dxRdbW1r/99hvOeenSJbwrASk4OLigoECdZo9Z0YitYlTPNIWdpuwtbDZ79erV+HjRokVpaWnkWyQSSWBgoPxuBcoSnwfsVqBNugmvIpHIxsaGx+Phl5mZmdHR0QRBtLe3UygUcustqVQaHx8vEAgUFl5eXu7l5YWPKysrPTw8JtQD4P+ouRlMcnLy5s2byVNvv/12cXExPnXr1q033nhDxWYwDx48oFKpnZ2dZEpmZuaWLVsIgmhtbbWysuLz+fL5Q0JC9u/fjyvatWvXsmXLcPp4w6t8s8esaER4VT3TFHaasrf09vY6ODiUlpbm5+d7enoKhULyLQcPHkxMTBwRSRUmPg8Ir9qkm8UBExOTVatWFRYW4pfkZrGOjo5MJjMqKqq4uHhgYMDAwIDD4VhZWSkshM/nM5lMfMxkMpubm4lJ/6Xul0BDQ0N5eXl0dDSZsnr1anJP6TE3iy0rKwsKCmIwGGTKtm3bvvjiC4TQ9evXAwIC3Nzc5PNv2LDh0qVL+Hjnzp1NTU1FRUXP2ewxKxphAjNN2VvodHp2dnZycnJqampeXp6pqSnOc/fu3RMnTuzdu1e+EIWJQI/o7NEWm83mcDgEQfT09NTW1sbExOD06urqyMjIjIwMBoMREhJSVVWlrITh4WFy53cqlSqVSvHyGdAEBoNhbm5uamrq7e0dGhq6ZMkS8tSyZcuuXLkiFAoRQsXFxStXrlRRTkdHx7Rp0xSeam1tnTlz5ohEJycncv3dzMwsJydn27Ztg4ODz9PsMSsaYQIzTcVbVqxYQRDE7NmzAwMDcYpMJlu/fn12dralpSVZgsJEoF90Fl5ZLJZYLObxeKWlpREREeTivZWV1Y4dO6qrq7u6umJjY8PCwlpbWxWWYGtri/+UQwgJBAIjIyNyQoMXrqura3h4WCQS1dbWlpSUXLt2jTxlYWEREhJy4cKF5uZmY2NjV1dXFeXY29t3dHTIp/T29n7zzTcIIScnp/b29hH529vbZ8yYQb6MiIhgsVg7d+58nmarU5G8Ccw0FW9JT093dnZub28nb/kzMzP9/f1DQkLkS1CYCPSLzsKrgYFBQkJCYWEhuTKAEDpz5kxUVBQ+ptFoKSkpwcHB8p9keS4uLk1NTfiYz+c7Ozvry29q6LWAgIDw8PBbt27JJ8bHx3M4nDFXBhBCixcv/uGHH8in5wihoqIiHF4XLlxYU1Pz66+/yuc/fvx4RESEfMrnn39++vTpmpqaCTdbzYpIE5hpyt5y586d9PT0Y8eO5ebmJicnd3d3I4Ru3ryZl5dHpVJdXFyEQiGVSq2urlaYOK5LBrqnk0dbGI/HmzZtGo1GI59l9fT02Nvbf/311wMDA0Kh8Pz587a2tvfv31dYuEQicXR0vHLlikQiSUhI2L179wTWnoE8NR9tbdq0ad++feQpgiAEAoGDg4O3t/fdu3cJglDxaIsgiI0bN86bN+/27dtisfiHH36YNm3ayZMn8am//e1vbm5u165dEwqFv/322/r1693c3J4+fUpWhOXm5lpYWIz30RbZ7DErGvFoS/VMU9hpCt8iFov9/Pz27t2L8yQmJq5cuVK+qM7OztFPsRQmThg82tImXYZXgiBcXV3j4uLkU+rq6iIiIqhUqp2dHYvFun79uory6+rqfH19Z86cuXbtWpFIpPZVA8XUDK8ZGRm+vr6EXHglCCIuLs7T0xMfqw6vMpls//79gYGBVlZWnp6eR48elT974sSJoKCgKVOmuLu7b9myBf/TOyK8ymSyoKCg8YZXstljVmRqamr2H8ePHydUzjSFnabwLXv27PHy8nr27BnO0N3dTafTT506Rb4FwutLhjIs90VrNfH5/KlTpyKE8H9VOHfu3PLly/ExhUIh4Mn+5EaOFwyW+vSr0+AjqU1a/b3XieHz+VlZWSMSLS0tMzIydNIeoA4YNQD0ILy6u7vn5OTouhVgfGDUAICfdAEAAI2A8AoAABoB4RUAADRCq2uvsI2aHoHBmgDoNCBPe+EVvgKiR2CwJgA6DYwAiwMAAKAR2rt7hR8E0Av4FgwGa1z0q9PgLltrtLr2CuM6yckvHcJgqUm/Og1Wh7UJFgcAAEAjILwCAIBGQHgFAACNgPAKAAAaAeEVAAA0Qjfhlc1mp6amyqf4+/vn5+cjhBobGyMjI+3s7BgMRlxcnLLd5bCamhofHx8Gg7FhwwaJRKLZRr+qhoaGKBSKkZGRsbGxkZERnU5PSkrCPxOMTyUkJMjnT0tLo1AojY2NY5ZmZmbm5+dXWVmJT41r6H19fblcLi7t0KFDZPrly5eDgoJGVESlUsPCwn7++ecR6SSpVMrlcm1sbMhdalpaWqhU6o0bN8iSY2JiyP1d1DF6co5ZRWNjI7npHEKopKTk9ddft7a2jomJwdvGAP2is/BK7sKNEGpra2toaIiNjZXJZFFRUREREffu3WtrawsICIiLi1NWiEQiSUxM3L17d2tra29v74EDB7TS9ldUX1+fWCyWSCRVVVX19fVffvkleaqiokL+R9nPnj1rYWGhTmmdnZ1sNjshIYEgiHEN/QgHDx5Utt8lrujhw4erVq0KDQ19+PChfDrJ0NAwNjY2MjJy69atOMP777//wQcfzJ8/HyE0MDCQn59//vx5NduDlExOFVUghKRS6Xvvvffs2TOyhYmJiRkZGa2traampp988on6tYNJQjfhdenSpYODg+RudGfPnl28eLG1tXVHR0dbW9vGjRttbGxMTU137Njx+uuvkztujnDlyhVzc/OVK1eam5t//PHHBQUFWryCV5eHh0doaGhbWxuZEhoaWlZWho9v375tY2Pj4OCgTlHW1tYbN27Em7mOa+hH2Lx58wcffKC6os2bN8fFxX3++ecqsh05cqSiouLcuXP//Oc/f//99z179uD01NTUb775xsBgHB8WZZNTWRUIoc8++2zOnDnky/v379NotJiYGGtr6z/+8Y8NDQ3q1w4mCd2EVxMTk1WrVpE3sORmsY6OjkwmMyoqqri4eGBgwMDAgMPhWFlZKSyEz+czmUx8zGQym5ubJ/+Xul8CDQ0N5eXl0dHRZMrq1avJPaXV2SyW1NfXl5ubu3jxYgsLi3EN/Qg7d+5samoqKipSnW3JkiX19fUqMtDp9Ozs7OTk5NTU1Ly8PFNTU5z+1VdfVVZW0ul0Na8LKZ+cyqq4e/fuiRMn9u7dS5bAZDJlMtnJkyfb29vz8/NZLJb6tYNJQmePtthsNofDIQiip6entrY2JiYGp1dXV0dGRmZkZDAYjJCQkKqqKmUlDA8Pk3vHU6lUqVQqEAi00fRXEoPBMDc3NzU19fb2Dg0NXbJkCXlq2bJlV65cEQqFCKHi4uKVK1eOWRqdTjc2NmYwGLt27SJX4dUf+hHMzMxycnK2bds2ODioIpuDg8Pvv/8u3wBs7ty5ZJ4VK1YQBDF79uzAwEA1a1dIxeQcXYVMJlu/fn12dralpSVZgqWl5aeffvrOO+/MmTPnxo0bI55VAL2gs/DKYrHEYjGPxystLY2IiCBX9K2srHbs2FFdXd3V1RUbGxsWFqZsWc3W1pb841EgEBgZGZETGrxw+E94kUhUW1tbUlJy7do18pSFhUVISMiFCxeam5uNjY1dXV3HLI1c+rx8+fKKFSvwczD1h360iIgIFou1c+dOFXm6u7tfe+21EQ0Qi8X4kReWnp7u7Ozc3t5O3o9PjIrJObqKzMxMf3//kJAQ+RIqKyv379//yy+/DAwMpKSkLF68+HnaA3RCZ+HVwMAgISGhsLCQXBlACJ05cyYqKgof02i0lJSU4OBg+U+yPBcXF/JJLp/Pd3Z21pff1NBrAQEB4eHht27dkk+Mj4/ncDjjWhlACFEolNDQ0Hnz5lVWVo5r6BX6/PPPT58+TS7oj3bx4kU/Pz8VJdy5cyc9Pf3YsWO5ubnJycnP87Be2eRUWMXNmzfz8vKoVKqLi4tQKKRSqdXV1ZcvX16yZImHh4eJiUlycvKtW7f6+vom3B6gG8Pjd/PmzY6Ojo6OjjG3+Va9qTqPx5s2bRqNRsNbzOOFAnt7+6+//npgYEAoFJ4/f97W1vb+/fsKC5dIJI6OjleuXJFIJAkJCbt371Zr63GgHDle8oOF78IeP35MpmzatGnfvn3kKYIgBAKBg4ODt7f33bt3CYJwdnZuaGhQWMWI0u7evWttbV1VVTWuoScIYu7cuSUlJWQDsNzcXAsLi/nz54+oSCAQ5OTkTJkypa2tbfTlYGKx2M/Pb+/evfhlYmLiypUr5TNMnTqVz+er2WkKJ+eYVXR2dpqZmeHjCxcu2Nvb37x5c2hoaM+ePXPmzFHWFeOi+iMJXixdhleCIFxdXePi4uRT6urqIiIiqFSqnZ0di8W6fv26ivLr6up8fX1nzpy5du1akUik9lUDxdQMrxkZGb6+voRceCUIIi4uztPTEx+PGV5NTU3NzMxMTU2nTZv22Wef4VPjGnqF4VUmkwUFBcmHV1wRlUplsVj19fUj0kk8Hm/Pnj1eXl7Pnj3DRXV3d9Pp9FOnTpGFjyu8Eoom55hVyIdXgiC+/PLLWbNmWVtbh4eH//LLLyp6Q30QXrWJIv+NRTXx+fypU6cihPB/VTh37tzy5cvxMYVCIeDJ/uRGjhcMlvr0q9PgI6lNWv2914nh8/lZWVkjEi0tLTMyMnTSHqCOFzJqMPRAr+lBeHV3d8/JydF1K8D4vJBRg6EHeg1+0gUAADQCwisAAGgEhFcAANAIra69wjZqegQGawKg04A87YVX+AqIHoHBmgDoNDACLA4AAIBGaO/uFX4QQC/gWzAYrHHRr06Du2yt0eraK4zrJCe/dAiDpSb96jRYHdYmWBwAAACNgPAKAAAaAeEVAAA0AsIrAABoBIRXAADQCN2EVzabPWJrNn9///z8fIRQY2NjZGSknZ0dg8GIi4traWlRUU5NTY2Pjw+DwdiwYYNEItFso19VQ0NDFArFyMjI2NjYyMiITqcnJSXhnwnGpxISEuTzp6WlUSgUvH2WMhkZGW+++SaVSvXw8Dh69Kj8qYKCguDgYBqN5uHhsXXrVrwDIK7o0KFDZLbLly8HBQUhhNasWYN3JKRQKIaGhviYx+OpaPaYFQ0MDChsdkxMDLnFy5hGT04ul2tjY9PZ2YkztLS0UKnUGzdukG9pbGwkN50bs6OAHtDJbgVcLtfJyYl8+eDBAxMTk/7+fqlU6uTkdPjw4UePHgmFwn379vn4+CgrXCwWu7q6FhcXP336NDY2ds+ePer/ijhQSJ3dCn755Rcmk3no0CHyFIPBePr0KZl/zpw5FhYWynYrIAhi27ZtCxYsuH37tlAorKiomDJlypkzZ/CpvXv3urq6Xrx48cmTJ01NTe+++66bm9vw8DCuyNra+rfffsM5L126hHclIAUHBxcUFKjT7DErGr1VzOPHj/Py8gwNDUdvWKCw05RNTjabvXr1any8aNGitLQ08i0SiSQwMFB+twIVHTVhsFuBNukmvIpEIhsbGx6Ph19mZmZGR0cTBNHe3k6hUMitt6RSaXx8vEAgUFh4eXm5l5cXPq6srPTw8JhQD4D/o+ZmMMnJyZs3byZPvf3228XFxfjUrVu33njjDRWbwTx48IBKpXZ2dpIpmZmZW7ZsIQiitbXVyspqRPwKCQnZv38/rmjXrl3Lli3D6eMNr/LNHrOi0eH1T3/6U3BwsLGxsZrhVdnk7O3tdXBwKC0tzc/P9/T0FAqF5FsOHjyYmJhIhlcVHfU8ILxqk24WB0xMTFatWlVYWIhfkpvFOjo6MpnMqKio4uLigYEBAwMDDodjZWWlsBA+n89kMvExk8lsbm4mJv2Xul8CDQ0N5eXl0dHRZMrq1avJPaXH3Cy2rKwsKCiIwWCQKdu2bfviiy8QQtevXw8ICHBzc5PPv2HDhkuXLuHjnTt3NjU1FRUVPWezx6xotK+++qqyspJOp6tZnbLJSafTs7Ozk5OTU1NT8/LyTE1NcZ67d++eOHFi7969ZAkqOgroC5092mKz2RwOhyCInp6e2tramJgYnF5dXR0ZGZmRkcFgMEJCQqqqqpSVMDw8TO4dT6VSpVIpXj4DmsBgMMzNzU1NTb29vUNDQ5csWUKeWrZs2ZUrV4RCIUKouLh45cqVKsrp6OiYNm2awlOtra0zZ84ckejk5ESuv5uZmeXk5Gzbtm1wcPB5mj1mRc9PxeRcsWIFQRCzZ88ODAzEKTKZbP369dnZ2ZaWlmQJKjoK6AudhVcWiyUWi3k8XmlpaUREBLmib2VltWPHjurq6q6urtjY2LCwsNbWVoUl2Nra4j/lEEICgcDIyIic0OCF6+rqGh4eFolEtbW1JSUl165dI09ZWFiEhIRcuHChubnZ2NjY1dVVRTn29vYdHR3yKb29vd988w1CyMnJqb29fUT+9vb2GTNmkC8jIiJYLNbOnTufp9nqVPScVEzO9PR0Z2fn9vZ28pY/MzPT398/JCREvgQVHQX0hc7Cq4GBQUJCQmFhIbkygBA6c+ZMVFQUPqbRaCkpKcHBwfKfZHkuLi7kY1w+n+/s7Kwvv6mh1wICAsLDw2/duiWfGB8fz+FwxlwZQAgtXrz4hx9+IJ+eI4SKiopw1Fi4cGFNTc2vv/4qn//48eMRERHyKZ9//vnp06dramom3Gw1K3oeyibnnTt30tPTjx07lpubm5yc3N3djRC6efNmXl4elUp1cXERCoVUKrW6ulpFRwG9oZNHWxiPx5s2bRqNRiOfZfX09Njb23/99dcDAwNCofD8+fO2trb3799XWLhEInF0dLxy5YpEIklISNi9e/dEFp+BHDUfbW3atGnfvn3kKYIgBAKBg4ODt7f33bt3CYJQ8WiLIIiNGzfOmzfv9u3bYrH4hx9+mDZt2smTJ/Gpv/3tb25ubteuXRMKhb/99tv69evd3NyePn1KVoTl5uZaWFiM99EW2ewxKxr9aAubOnWqmo+2FE5OsVjs5+e3d+9enCcxMXHlypXyRXV2dsp/c0BFR00YPNrSJl2GV4IgXF1d4+Li5FPq6uoiIiKoVKqdnR2Lxbp+/bqK8uvq6nx9fWfOnLl27VqRSKT2VQPF1AyvGRkZvr6+hFx4JQgiLi7O09MTH6sOrzKZbP/+/YGBgVZWVp6enkePHpU/e+LEiaCgoClTpri7u2/ZsgX/0zsivMpksqCgoPGGV7LZY1Zkampq9h/Hjx8n36J+eCUUTc49e/Z4eXk9e/YMZ+ju7qbT6adOnSLfMiK8qu6oiYHwqk2UYbkvWquJz+dPnToVIYT/q8K5c+eWL1+OjykUCgFP9ic3crxgsNSnX50GH0lt0urvvU4Mn8/PysoakWhpaZmRkaGT9gB1wKgBoAfh1d3dPScnR9etAOMDowYA/KQLAABoBIRXAADQCAivAACgEVpde4Vt1PQIDNYEQKcBedoLr/AVED0CgzUB0GlgBFgcAAAAjdDe3Sv8IIBewLdgMFjjol+dBnfZWqPVtVcY10lOfukQBktN+tVpsDqsTbA4AAAAGgHhFQAANALCKwAAaASEVwAA0AgIrwAAoBG6Ca9sNjs1NVU+xd/fPz8/HyHU2NgYGRlpZ2fHYDDi4uJU7y5XU1Pj4+PDYDA2bNggkUg02+hX1dDQEIVCMTIyMjY2NjMz8/Pzq6ysxKfGNVi+vr5cLle+NCqVGhYW9vPPP+MML9lojr4cLpdrY2ND7u/S0tJCpVJv3LiBEPr111/Dw8Otra2DgoLIbnzJOuQVpLPwSu7CjRBqa2traGiIjY2VyWRRUVERERH37t1ra2sLCAiIi4tTVohEIklMTNy9e3dra2tvb++BAwe00vZXVF9fn1gs7uzsZLPZCQkJBEGMa7AUlvbw4cNVq1aFhoY+fPjwJRtNhZcTGxsbGRm5detWnOf999//4IMP8J4LiYmJycnJPT09cXFxH330kbISgJ7RyWYwIpHIxsaGx+Phl5mZmdHR0QRBtLe3UygUcustqVQaHx8vEAgUFl5eXu7l5YWPKysrPTw81NugASilzmYw/f39BgYGQ0ND4xosgiDmzp1bUlIyeo+WNWvWfPjhh/o7mgo7Tdnl9Pb2Ojg4lJaW5ufne3p6CoVCgiAqKireeOONEcVqqENgMxht0s3dq4mJyapVq8gbWHKzWEdHRyaTGRUVVVxcPDAwYGBgwOFwrKysFBbC5/OZTCY+ZjKZzc3NxKT/Ure+6+vry83NXbx4sYWFxbgGS4UlS5bU/7/27j+mqXN9APhpoZYJZwUKLcg3BkGd/NDYIuoyBsWkYFelVMxlrWzDzM1YN7JJ5ubCFpybC7HLBWOAbTGhN3dso8oF3BVxQZ3FlF9hMkQ7nQSBOGjhKlYulP54v3+c3JMO29oyTkvH8/nDnL49ffuc85w+ObzneN6enr9YNp1tDpvNrqysVCgUhw8frqmpYTKZGIb19fVxOJw9e/bExcVJJJJ79+656AH4EZ9d2pLJZGq1GiFkMBi6urpycnKIdq1WKxKJlEoll8tNT09va2tz1sP09DQ5dzyO41ar1Wg0eiP0JYnNZjMYDC6XW1JSQo6bu58sFzgczv379/9i2XSxObm5uQih1atXp6amEi2PHz/+4Ycfdu3a1dvbu3btWplM5roH4C98Vl4FAoHZbO7o6GhqahIKhSwWi2gPCQk5cuSIVqsdGxuTSCSZmZmDg4MOewgPDyf+0sQwzGg0BgYGkocjWHDEaKnZbG5tbc3Nze3v78c8SZYLer1+xYoVf7FsuticsrKy2NjYkZERtVpNtLBYLD6fn5eXh+P4u+++297e/vDhw7/YDlmafFZe6XR6fn5+XV0dOTKAYVh9fb1YLCaWWSxWcXFxWlralStXHPYQFxf366+/Ess6nS42NtZfnqnhv2g0WkZGxpYtWzQajUfJcuHixYt8Pv8vlk1nm9PX11dWVnb69Onq6mqFQqHX6zEMi4+Pt9lsxMp0Op1OpwcEBPzFdsjS5Mv7XmUy2XfffdfW1kbODJyent7V1fX1118/evTIZDI1Nzf/8ssv6enpDj8uEAj0ev3ly5etVmtFRUVBQYEXY1+6dDpdV1fX+vXrPUqWQ48fP66urq6vrz906NBfLJsON8disRQWFr733nvPPffc9u3bs7KyDhw4QKz8+++/t7S02Gy28vLyF198Ecfxv9gOWaJ8cucAKT4+XiqV2rd0d3cLhUIcxyMiIgQCwdWrV130393dzePxVq5cWVhYaDKZ3LiUB1xxcecAk8kMCgpiMpnR0dEnTpwg3vIoWfZ3DhC9EUWkp6eH7M0fs+lwpyFHm3P06NHk5OTZ2VliBb1ez2aza2trEUKdnZ2pqamRkZEvvfTS8PCwsx4WMNonAwYLjjY9Pe1pRdbpdFFRURiGEf+6cO7cOfLMlEajIbj0ubiR+YJkuc+/dhr8JL3Jq897nR+dTldRUTGnMTg4WKlU+iQe4AIkCwCSH5TXdevWVVVV+ToK4BZIFgAkeKQLAABQAsorAABQAsorAABQwqtjrzCNmh+BZM0D7DRgz3vlFW4B8SOQrHmAnQbmgMEBAACghPfOXuF/TPsF4hQMkuUR/9ppcJbtNV4de4W8LnL2Q4eQLDf5106D0WFvgsEBAACgBJRXAACgBJRXAACgBJRXAACgBJRXAACghG/Kq0wmI6fDI6SkpKhUKgzD+vv7RSJRREQEl8uVSqUDAwMu+uns7NywYQOXy923b5/FYqE26KVqamqKRqMFBgYyGIygoCA+n6/RPstYXQAAIABJREFUaIi3PEoWYdWqVTExMeTcJ/ad4ziemZl5/fp1N9sDAwPZbParr75KPLPY/i2S1Wp1Eaez9gU5rp7spLGxMSwsbHR0lFhhYGAAx/H29nYMw3777bdt27aFhoY+//zzc3Zjf38/ORMd8C8+K6/kLNwYhg0NDd24cUMikdhsNrFYLBQK79y5MzQ0tGnTJqlU6qwTi8Uil8tLS0sHBwfHx8ePHz/uldiXKGIqw9HRUZlMlp+fjxDyKFkErVaLEKLT6XPmlCU6Hx4ezsvLy8jIGB4edqfdYrG0tbX19PScOnVqTlekgIAAZ3E6a1+Q48phJxKJRCQSFRUVEevs37//4MGDW7duRQjJ5XKFQmEwGKRS6aFDh8h+rFbr3r17Z2dn5xED8D2fTAZjMpnCwsI6OjqIl+Xl5Tt27EAIjYyM0Gi0R48eEe1Wq3X37t1Go9Fh5y0tLcnJycSyRqNJSEhwa34G4JyLyWAePnxIvHzw4AGdTp+amvIoWYS33367pKSkuLhYoVA47Bwh9Nprr73zzjvutysUirfeesthVwRncTpr9/S4crjTnHUyPj7O4XCamppUKlViYuLMzAxC6Kefftq8ebPDzj///HO5XB4UFOQ6BvfBZDDe5Juz12XLluXl5ZEnsORksTExMUlJSWKx+OzZs5OTk3Q6Xa1Wh4SEOOxEp9MlJSURy0lJSbdv30aL/qZufzcxMVFdXZ2VlbV8+XKPkoVhmNVqVavVr776qkwmO3PmDPFn+5Oys7N7enrcbL9x40ZLS8uOHTtcxOwsTmftC3JcOeuEzWZXVlYqFIrDhw/X1NQwmUwMw/r6+jgczp49e+Li4iQSyb1794gP3rp165///OexY8c8/XawSPjs0pZMJlOr1Qghg8HQ1dWVk5NDtGu1WpFIpFQquVxuenr6nL8i7U1PT5Mzv+M4brVajUajN0JfkthsNoPB4HK5JSUl5Li5+8nCMOzy5ctxcXFr1qxJSUlhsVjOpuzmcDj379933c7lcp955hkmk7l+/fqMjIzs7Ow5cRI2btzoOk6H7QtyXLnoJDc3FyG0evXq1NRUouXx48c//PDDrl27ent7165dK5PJMAyz2Wyvv/56ZWVlcHCwp98OFgmflVeBQGA2mzs6OpqamoRCITl4HxIScuTIEa1WOzY2JpFIMjMzBwcHHfYQHh5O/D2IYZjRaAwMDCQPaLDgyDHN1tbW3Nzc/v5+zJNkYRj27bff9vT0REZGRkZG3rt37/vvv3e4ml6vX7Fihev2sbGx6elpk8nU1dXV0NBgX6ntx16Jq2Eu4nTYviDHlYtOysrKYmNjR0ZG1Go10cJisfh8fl5eHo7j7777bnt7+8OHD8vLy1NSUjya2BwsNj4rr3Q6PT8/v66ujhwZwDCsvr5eLBYTyywWq7i4OC0tzdlpTlxc3K+//kos63S62NhYf3mmhv+i0WgZGRlbtmzRaDQeJWt2dra+vv7WrVsGg8FgMGi12vr6eocX5S9evMjn891s37Rp07Zt23p7e13E7CxOZ+0Lclw566Svr6+srOz06dPV1dUKhUKv12MYFh8fT95KQafT6XR6QEDAzz//XFNTg+N4XFzczMwMjuNardbTMICP+eTSFqGjoyM6OprFYpGXFwwGQ2Rk5FdffTU5OTkzM3P+/Pnw8PC7d+867NxiscTExFy6dMliseTn55eWls5j7BnYc+fS1q1bt0JDQ9va2jxKVkNDw4YNG8iXNpttxYoVzc3N9p0bjcaqqqpnn312aGjInXbCgQMHPv300yfjJDmL01m7p8eVw53msBOz2czn848dO0asI5fLd+3ahRCanZ3lcrkXLlywWq3vv/++QCCw7390dBQubfkpX5ZXhFB8fLxUKrVv6e7uFgqFOI5HREQIBIKrV6+66L+7u5vH461cubKwsNBkMrm91cAxF+WVyWQGBQUxmczo6OgTJ04Qb7mfrJdffvmjjz6yb3njjTcKCwvtO8dxXCAQ9PT0zPnSJ9vta6hSqeTxeHM+QiLuTnEWp4t2948rhzvNYSdHjx5NTk6enZ0lVtDr9Ww2u7a2FiHU2dmZmpoaGRn50ksvDQ8P2/cD5dV/0aanpz094dXpdFFRURiGEf+6cO7cuZ07dxLLNBoNwZX9xY3MFyTLff610+An6U1efd7r/Oh0uoqKijmNwcHBSqXSJ/EAFyBZAJD8oLyuW7euqqrK11EAt0CyACDBI10AAIASUF4BAIASUF4BAIASXh17hWnU/Agkax5gpwF73iuvcAuIH4FkzQPsNDAHDA4AAAAlvHf2Cg8E8AvEKRgkyyP+tdPgLNtrvDr2Cnld5OyHDiFZbvKvnQajw94EgwMAAEAJKK8AAEAJKK8AAEAJKK8AAEAJKK8AAEAJ35RXmUxGTodHSElJUalUGIb19/eLRKKIiAgulyuVSgcGBlz009nZuWHDBi6Xu2/fPoczi4A/b2pqikajBQYGMhiMoKAgPp+v0WiItzxKlrOVeTxeY2NjU1MTw05AQACDwbD/ahIxxeziT/2TETY2NoaFhY2OjhIrDAwM4Dje3t6OYdhvv/22bdu20NDQ559/ntwzDQ0Na9euDQ0NzcnJIaaNAf7FZ+WVnIUbw7ChoaEbN25IJBKbzSYWi4VC4Z07d4aGhjZt2iSVSp11YrFY5HJ5aWnp4ODg+Pj48ePHvRL7EkVMETg6OiqTyfLz8xFCHiXrqSvn5OSQUxDOzMy88MILr7zyiv1XkwICAhZ/6h1GKJFIRCJRUVERsc7+/fsPHjy4detWhJBcLlcoFAaDQSqVHjp0CMOwiYkJuVyuVCoHBweZTOYHH3zgy+0B8+OTyWBMJlNYWBgxUQdCqLy8fMeOHQihkZERGo1GTr1ltVp3795tNBoddt7S0pKcnEwsazSahIQE9yZoAE65M9fWgwcP6HT61NSUR8lysfLGjRsbGhrsV/7www8TExOnpqacTZ+1qFLvcKc5i3B8fJzD4TQ1NalUqsTExJmZGYTQTz/9tHnz5jnddnR0REVFEctnzpxJTU1d2GgRTAZDPd+cvS5btiwvL488gSUni42JiUlKShKLxWfPnp2cnKTT6Wq1OiQkxGEnOp0uKSmJWE5KSrp9+zZa9Dd1+7uJiYnq6uqsrKzly5d7lCz3V/7xxx9PnjxZV1e3fPlyZ2Es/tQ7i5DNZldWVioUisOHD9fU1DCZTAzD+vr6OBzOnj174uLiJBLJvXv3iE/ZbLZvvvlmZGREpVIJBALfbQ2YJ59d2pLJZGq1GiFkMBi6urpycnKIdq1WKxKJlEoll8tNT09va2tz1sP09DQ5dzyO41ar1Wg0eiP0JYnNZjMYDC6XW1JSQo6bu58sN1f+/fffCwoKTp48SdYm8qsJGzduxPwh9S4izM3NRQitXr06NTWVaHn8+PEPP/ywa9eu3t7etWvXymQyDMOCg4M//vjjgoKCNWvWtLe3z7lWAfyCz8qrQCAwm80dHR1NTU1CoZDFYhHtISEhR44c0Wq1Y2NjEokkMzNzcHDQYQ/h4eHEH48YhhmNxsDAQPKABguOHABtbW3Nzc3t7+/HPEmWOyvbbLY9e/ZkZ2fv3bvX4Vebzebr169j/pB6FxGWlZXFxsaOjIyo1WqihcVi8fn8vLw8HMfffffd9vb2hw8fajSazz777ObNm5OTk8XFxVlZWb7ZEvAn+Ky80un0/Pz8uro6cmQAw7D6+nqxWEwss1is4uLitLS0K1euOOwhLi7u119/JZZ1Ol1sbKy/PFPDf9FotIyMjC1btmg0Go+S5c7Kn3zyyf379ysrK58axuJPvbMI+/r6ysrKTp8+XV1drVAoiPsB4uPjbTYbsTKdTqfT6QEBAa2trdnZ2QkJCcuWLVMoFL29vRMTE77aHDBPPrm0Rejo6IiOjmaxWOQVD4PBEBkZ+dVXX01OTs7MzJw/fz48PPzu3bsOO7dYLDExMZcuXbJYLPn5+aWlpfMYewb23Lm0devWrdDQ0La2No+S5WJl4tLWpUuXgoODe3t77T/l7NLWokq9w53mMEKz2czn848dO0asI5fLd+3ahRCanZ3lcrkXLlywWq3vv/++QCBACF24cCEyMvLnn3+empo6evTomjVrFjZaBJe2qOfL8ooQio+Pl0ql9i3d3d1CoRDH8YiICIFAcPXqVRf9d3d383i8lStXFhYWmkwmt7caOOaivDKZzKCgICaTGR0dfeLECeItT5PlcGWivBYUFNBotKA/mpycJL+aRNxwsnhS73CnIUcRHj16NDk5eXZ2llhBr9ez2eza2lqEUGdnZ2pqamRk5EsvvTQ8PEyscOrUqVWrVoWGhm7btu3mzZsLG+2TAYMFR5uenvb0hFen00VFRWEYRvzrwrlz53bu3Eks02g0tMgu74I5yHxBstznXzsNfpLe5NXnvc6PTqerqKiY0xgcHKxUKn0SD3ABkgUAyQ/K67p166qqqnwdBXALJAsAEjzSBQAAKAHlFQAAKAHlFQAAKOHVsVeYRs2PQLLmAXYasOe98gq3gPgRSNY8wE4Dc8DgAAAAUMJ7Z6+L7X+FA4eIUzBIlkf8a6fBWbbXeHXsFfK6yNkPHUKy3ORfOw1Gh70JBgcAAIASUF4BAIASUF4BAIASUF4BAIASUF4BAIASvimvMplsztRsKSkpKpUKw7D+/n6RSBQREcHlcqVS6cDAgIt+Ojs7N2zYwOVy9+3bZ7FYqA16qZqamqLRaIGBgQwGIygoiM/nazQa4i2PksXj8RobG+17w3E8MzOTmD6LlJOTQ06j4teePDgbGxvDwsJGR0eJFQYGBnAcb29v/+KLL2h/dO3aNYc9AP/is/JKzsKNYdjQ0NCNGzckEonNZhOLxUKh8M6dO0NDQ5s2bZJKpc46sVgscrm8tLR0cHBwfHz8+PHjXol9iSLmExwdHZXJZPn5+Qghj5LlsLfh4eG8vLyMjIzh4WEMwyYnJ1Uq1fnz56ncDi9xeHBKJBKRSFRUVESss3///oMHD27durWoqOjx/3R2dvJ4vM2bN8Ph/Vfgk8lgTCZTWFgYMasHQqi8vHzHjh0IoZGRERqNRk69ZbVad+/ebTQaHXbe0tKSnJxMLGs0moSEBDdnaADOuDPX1oMHD+h0+tTUlEfJQv+b9OXJ6bNee+21d955ByH05ptvpqWlMRgMnU634JtGHYc7zdnBOT4+zuFwmpqaVCpVYmLizMzMnN4yMzOJ3wVFhzdMBuNNvjl7XbZsWV5eHnkCS04WGxMTk5SUJBaLz549Ozk5SafT1Wp1SEiIw050Ol1SUhKxnJSUdPv2bbTob+r2dxMTE9XV1VlZWcuXL/coWS5kZ2f39PRgGPbll19qNBo2m01B4N7m7OBks9mVlZUKheLw4cM1NTVMJtP+U3V1ddHR0Zs3b3bRA/AjPru0JZPJ1Go1QshgMHR1deXk5BDtWq1WJBIplUoul5uent7W1uash+npaXLueBzHrVar0Wj0RuhLEpvNZjAYXC63pKSEHDd3P1kucDic+/fvL2iwvufi4MzNzUUIrV69OjU11f4jNpvt2LFjJSUlT+0B+AuflVeBQGA2mzs6OpqamoRCIYvFItpDQkKOHDmi1WrHxsYkEklmZubg4KDDHsLDw4m/NDEMMxqNgYGB5OEIFhwxWmo2m1tbW3Nzc/v7+zFPkuWCXq9fsWLFwkfsUy4OzrKystjY2JGREbVabf+R5uZmDoeTkJDw1B6Av/BZeaXT6fn5+XV1deTIAIZh9fX1YrGYWGaxWMXFxWlpaVeuXHHYQ1xcHHmJWafTxcbG+sszNfwXjUbLyMjYsmWLRqPxKFkuXLx4kc/nL3Cgvubs4Ozr6ysrKzt9+nR1dbVCodDr9eRHVCqVXC5/ag/Aj/jyvleZTPbdd9+1tbWRMwOnp6d3dXV9/fXXjx49MplMzc3Nv/zyS3p6usOPCwQCvV5/+fJlq9VaUVFRUFDgxdiXLp1O19XVtX79eo+S5dDjx4+rq6vr6+sPHTpEXcA+4fDgtFgshYWF77333nPPPbd9+/asrKwDBw4Q65vN5ubm5uzsbNc9AD/jkzsHSPHx8VKp1L6lu7tbKBTiOB4RESEQCK5eveqi/+7ubh6Pt3LlysLCQpPJ5M61POCCizsHmExmUFAQk8mMjo4+ceIE8ZZHybK/c4DoDcdxgUDQ09Njv1pUVNRf4M4B5OjgPHr0aHJy8uzsLLGCXq9ns9m1tbUIoWvXrsXExMzpmYrDG+4c8Cba9PS0pxVZp9NFRUVhGEb868K5c+fIM1MajYbg0ufiRuYLkuU+/9pp8JP0Jq8+73V+dDpdRUXFnMbg4GClUumTeIALkCwASH5QXtetW1dVVeXrKIBbIFkAkOCRLgAAQAkorwAAQAkorwAAQAmvjr3CNGp+BJI1D7DTgD3vlVe4BcSPQLLmAXYamAMGBwAAgBLeO3uF/zHtF4hTMEiWR/xrp8FZttd4dewV8rrI2Q8dQrLc5F87DUaHvQkGBwAAgBJQXgEAgBJQXgEAgBJQXgEAgBJQXgEAgBK+Ka8ymYycDo+QkpKiUqkwDOvv7xeJRBEREVwuVyqVDgwMuOins7Nzw4YNXC533759FouF2qCXqqmpKRqNFhgYyGAwgoKC+Hy+RqMh3vIoWYRVq1bFxMTYbLYnO8dxPDMz8/r16262BwYGstnsV199lXhmsf1bJKvV6iJO1/Hn5OSQ07HMw5MHZ2NjY1hY2OjoKLHCwMAAjuPt7e1ffPEF7Y+uXbtG9tPf30/ORAf8i8/KKzkLN4ZhQ0NDN27ckEgkNptNLBYLhcI7d+4MDQ1t2rRJKpU668Riscjl8tLS0sHBwfHx8ePHj3sl9iWKmMpwdHRUJpPl5+cjhDxKFkGr1SKE6HT6nDllic6Hh4fz8vIyMjKGh4fdabdYLG1tbT09PadOnZrTFSkgIMBZnC7in5ycVKlU58+fn/fucnhwSiQSkUhUVFRErLN///6DBw9u3bq1qKjo8f90dnbyeDxiLm4Mw6xW6969e2dnZ+cdCfAln0wGYzKZwsLCOjo6iJfl5eU7duxACI2MjNBotEePHhHtVqt19+7dRqPRYectLS3JycnEskajSUhIcG+CBuCUi8lgHj58SLx88OABnU6fmpryKFmEt99+u6SkpLi4WKFQOOwcIfTaa6+988477rcrFIq33nrLYVcEZ3G6iP/NN99MS0tjMBjuTEvjcKc5OzjHx8c5HE5TU5NKpUpMTJyZmZnTW2ZmJvm7QAh9/vnncrk8KCjoqWG4CSaD8SafzbW1b9++4uJiYjkjI+Mf//gHsZycnPziiy+eOXPmyd/JHBUVFcRpFELoP//5D3Ge4v6Wgyc9tbyOj49//vnn27dvJ95yP1kIIYvFEhUVdfv27e7ubg6HY7FYkKOaWFtbm56e7mZ7X19ffHz8hQsXHHZFchan6/jdnPXL4U5zcXCeOXPm//7v/7hcbmdn55yuvv/+e7lcTr68efNmUlLS3bt3obz6KZ9d2pLJZGq1GiFkMBi6urpycnKIdq1WKxKJlEoll8tNT0+f81ekvenpaXLmdxzHrVar0Wj0RuhLEpvNZjAYXC63pKSEHDd3P1kYhl2+fDkuLm7NmjUpKSksFsvZlN0cDuf+/fuu27lc7jPPPMNkMtevX5+RkWE/wSoRJ2Hjxo2u4/Qofo+4ODhzc3MRQqtXr05NTbX/iM1mO3bsWElJCfny9ddfr6ysDA4OXqiogJf5rLwKBAKz2dzR0dHU1CQUCsnB+5CQkCNHjmi12rGxMYlEkpmZOTg46LCH8PBw4oQFwzCj0RgYGEge0GDBkWOara2tubm5/f39mCfJwjDs22+/7enpiYyMjIyMvHfv3vfff+9wNb1ev2LFCtftY2Nj09PTJpOpq6uroaHBvlLbj70SV8NcxOlR/B5xcXCWlZXFxsaOjIyo1Wr7jzQ3N3M4nISEBOJleXl5SkqKRxObg8XGZ+WVTqfn5+fX1dX961//+tvf/kY01tfXi8ViYpnFYhUXF6elpTk7zYmLiyMv7Op0utjYWH95pob/otFoGRkZW7Zs0Wg0HiVrdna2vr7+1q1bBoPBYDBotdr6+nqHN3tcvHiRz+e72b5p06Zt27b19va6iNlZnB7F7ylnB2dfX19ZWdnp06erq6sVCoVeryc/olKp5HI5+fLnn3+uqanBcTwuLm5mZgbHca1WuyCxAe/x1dgrQqijoyM6OprFYpGXFwwGQ2Rk5FdffTU5OTkzM3P+/Pnw8PC7d+867NxiscTExFy6dMliseTn55eWls5vfASQ3Lm0devWrdDQ0La2No+S1dDQsGHDBvKlzWZbsWJFc3OzfedGo7GqqurZZ58dGhpyp51w4MCBTz/99Mk4Sc7ifGr8f2bs1eHBaTab+Xz+sWPHiHXkcvmuXbuI5dnZ2ZCQkOHh4Sf7Hx0dhbFXP+XL8ooQio+Pl0ql9i3d3d1CoRDH8YiICIFAcPXqVRf9d3d383i8lStXFhYWmkwmt7caOOaivDKZzKCgICaTGR0dfeLECeIt95P18ssvf/TRR/Ytb7zxRmFhoX3nOI4LBIKenp45X/pku30NVSqVPB5vzkdIxFV4Z3G6jv/PlFfk6OA8evRocnLy7OwssYJer2ez2bW1tQiha9euxcTEOOwfyqv/ok1PT3t6wqvT6aKiojAMI/514dy5czt37iSWaTQaWvSPa1viyHxBstznXzsNfpLe5NXnvc6PTqerqKiY0xgcHKxUKn0SD3ABkgUAyQ/K67p166qqqnwdBXALJAsAEjzSBQAAKAHlFQAAKAHlFQAAKOHVsVeYRs2PQLLmAXYasOe98gq3gPgRSNY8wE4Dc8DgAAAAUMJ7Z6/wQAC/QJyCQbI84l87Dc6yvcarY6+Q10XOfugQkuUm/9ppMDrsTTA4AAAAlIDyCgAAlIDyCgAAlIDyCgAAlIDyCgAAlPBNeZXJZOR0eISUlBSVSoVhWH9/v0gkioiI4HK5Uql0YGDART+dnZ0bNmzgcrn79u1zOLMI+POmpqZoNFpgYCCDwQgKCuLz+RqNhnjLo2Q5W5nH4zU2NjY1NTHsBAQEMBgM+68mWa1Wss+cnBxyzpXF5smDs7GxMSwsbHR0lFhhYGAAx/H29vYvvviC9kfXrl3DMKyhoWHt2rWhoaE5OTn208YAf+Gz8lpXV0e+HBoaunHjhkQisdlsYrFYKBTeuXNnaGho06ZNUqnUWScWi0Uul5eWlg4ODo6Pjx8/ftwrsS9RxBSBo6OjMpmMmGLao2Q9deWcnBxyCsKZmZkXXnjhlVdesf9qUkBAAIZhk5OTKpXq/PnzlG71vDk8OCUSiUgkKioqItbZv3//wYMHt27dWlRU9Ph/Ojs7eTze5s2bJyYm5HK5UqkcHBxkMpkffPCBTzcIzItPJoMxmUxhYWHERB0IofLy8h07diCERkZGaDQaOfWW1WrdvXu30Wh02HlLS0tycjKxrNFoEhIS3JyhATjjzlxbDx48oNPpU1NTHiXLxcobN25saGiwX/nDDz9MTEycmppyNn0WQujNN99MS0tjMBjuzNdCKYc7zdnBOT4+zuFwmpqaVCpVYmLizMzMnN4yMzOJ30VHR0dUVBTReObMmdTU1IWNFsFkMNTzzdnrsmXL8vLyyBNYcrLYmJiYpKQksVh89uzZyclJOp2uVqtDQkIcdqLT6ZKSkojlpKSk27dvo0V/U7e/m5iYqK6uzsrKWr58uUfJcn/lH3/88eTJk3V1dcuXL3cRyZdffqnRaNhs9sJs2EJzdnCy2ezKykqFQnH48OGamhomk2n/qbq6uujo6M2bNxOfstls33zzzcjIiEqlEggEXt8I8Gf57NKWTCZTq9UIIYPB0NXVlZOTQ7RrtVqRSKRUKrlcbnp6eltbm7MepqenybnjcRy3Wq1Go9EboS9JbDabwWBwudySkhJy3Nz9ZLm58u+//15QUHDy5EmyNpFfTdi4cePCbhdFXBycubm5CKHVq1enpqbaf8Rmsx07dqykpIR4GRwc/PHHHxcUFKxZs6a9vX3OtQrgF3xWXgUCgdls7ujoaGpqEgqFLBaLaA8JCTly5IhWqx0bG5NIJJmZmYODgw57CA8PJ/54xDDMaDQGBgaSBzRYcOQAaGtra25ubn9/P+ZJstxZ2Waz7dmzJzs7e+/evQ6/2mw2X79+nZLNW2guDs6ysrLY2NiRkRG1Wm3/kebmZg6Hk5CQQLzUaDSfffbZzZs3Jycni4uLs7KyvBk/WBA+K690Oj0/P7+uro4cGcAwrL6+XiwWE8ssFqu4uDgtLe3KlSsOe4iLiyOvGut0utjYWH95pob/otFoGRkZW7Zs0Wg0HiXLnZU/+eST+/fvV1ZWUrgB3uLs4Ozr6ysrKzt9+nR1dbVCobC/H0ClUsnlcvJla2trdnZ2QkLCsmXLFApFb2/vxMSEl7cC/Em+vO9VJpN99913bW1t5MzA6enpXV1dX3/99aNHj0wmU3Nz8y+//JKenu7w4wKBQK/XX7582Wq1VlRUFBQUeDH2pUun03V1da1fv96jZD115cuXLyuVyrq6Omejt/7F4cFpsVgKCwvfe++95557bvv27VlZWQcOHCDWN5vNzc3N2dnZZA/PP//8v//97+vXr//3v//9+9//Hh8fv2gHmoFTPrlzgBQfHy+VSu1buru7hUIhjuMRERECgeDq1asu+u/u7ubxeCtXriwsLDSZTG5dzAPOubhzgMlkBgUFMZnM6OjoEydOEG95miyHKxN3DhQUFNBotKA/mpycJL+aRN5wghCKiopanHcOIEcH59GjR5OTk2dnZ4kV9Ho9m82ura1FCF27di0mJmZOz6dOnVq1alVoaOi2bdtu3ry5sNE+GTBYcLTp6WlPK7JOp4uKisIwjPjXhXPnzpFnpjQaDcGV/cWNzBcky30zfdQoAAABAElEQVT+tdPgJ+lNXn3e6/zodLqKioo5jcHBwUql0ifxABcgWQCQ/KC8rlu3rqqqytdRALdAsgAgwSNdAACAElBeAQCAElBeAQCAEl4de4Vp1PwIJGseYKcBe94rr3ALiB+BZM0D7DQwBwwOAAAAJaC8AgAAJSgfHIDHrAAAliZqy+vOnTthQAoAsDTB4AAAAFACyisAAFACyisAAFACyisAAFACyisAAFACyisAAFACyisAAFACyisAAFACyisAAFACyisAAFACyisAAFACyisAAFACyisAAFACyisAAFACyisAAFACyisAAFACyisAAFACyisAAFACyisAAFDi/wGhMXajG37swgAAAABJRU5ErkJggg==;" parent="1" vertex="1">
          <mxGeometry x="140.5" y="450" width="458" height="706" as="geometry" />
        </mxCell>
      </root>
    </mxGraphModel>
  </diagram>
</mxfile>
